<?xml version="1.0" encoding="UTF-8" standalone="no"?>
<!DOCTYPE svg PUBLIC "-//W3C//DTD SVG 1.1//EN"
 "http://www.w3.org/Graphics/SVG/1.1/DTD/svg11.dtd">
<!-- Generated by graphviz version 2.43.0 (0)
 -->
<!-- Title: snakemake_dag Pages: 1 -->
<svg width="818pt" height="1174pt"
 viewBox="0.00 0.00 817.50 1174.00" xmlns="http://www.w3.org/2000/svg" xmlns:xlink="http://www.w3.org/1999/xlink">
<g id="graph0" class="graph" transform="scale(1 1) rotate(0) translate(4 1170)">
<title>snakemake_dag</title>
<polygon fill="white" stroke="transparent" points="-4,4 -4,-1170 813.5,-1170 813.5,4 -4,4"/>
<!-- 1 -->
<g id="node1" class="node">
<title>1</title>
<path fill="none" stroke="#ced856" stroke-width="2" d="M423,-41C423,-41 374,-41 374,-41 368,-41 362,-35 362,-29 362,-29 362,-12 362,-12 362,-6 368,0 374,0 374,0 423,0 423,0 429,0 435,-6 435,-12 435,-12 435,-29 435,-29 435,-35 429,-41 423,-41"/>
<text text-anchor="middle" x="398.5" y="-29" font-family="sans" font-size="10.00">index_vcf</text>
<text text-anchor="middle" x="398.5" y="-18" font-family="sans" font-size="10.00">file: phased</text>
<text text-anchor="middle" x="398.5" y="-7" font-family="sans" font-size="10.00">path: out</text>
</g>
<!-- 2 -->
<g id="node2" class="node">
<title>2</title>
<path fill="none" stroke="#d88d56" stroke-width="2" d="M413.5,-113C413.5,-113 383.5,-113 383.5,-113 377.5,-113 371.5,-107 371.5,-101 371.5,-101 371.5,-89 371.5,-89 371.5,-83 377.5,-77 383.5,-77 383.5,-77 413.5,-77 413.5,-77 419.5,-77 425.5,-83 425.5,-89 425.5,-89 425.5,-101 425.5,-101 425.5,-107 419.5,-113 413.5,-113"/>
<text text-anchor="middle" x="398.5" y="-92.5" font-family="sans" font-size="10.00">concat</text>
</g>
<!-- 2&#45;&gt;1 -->
<g id="edge1" class="edge">
<title>2&#45;&gt;1</title>
<path fill="none" stroke="grey" stroke-width="2" d="M398.5,-76.82C398.5,-69.2 398.5,-60 398.5,-51.32"/>
<polygon fill="grey" stroke="grey" stroke-width="2" points="402,-51.12 398.5,-41.12 395,-51.12 402,-51.12"/>
</g>
<!-- 3 -->
<g id="node3" class="node">
<title>3</title>
<path fill="none" stroke="#ced856" stroke-width="2" d="M441.5,-190C441.5,-190 355.5,-190 355.5,-190 349.5,-190 343.5,-184 343.5,-178 343.5,-178 343.5,-161 343.5,-161 343.5,-155 349.5,-149 355.5,-149 355.5,-149 441.5,-149 441.5,-149 447.5,-149 453.5,-155 453.5,-161 453.5,-161 453.5,-178 453.5,-178 453.5,-184 447.5,-190 441.5,-190"/>
<text text-anchor="middle" x="398.5" y="-178" font-family="sans" font-size="10.00">index_vcf</text>
<text text-anchor="middle" x="398.5" y="-167" font-family="sans" font-size="10.00">file: NC_037640.1</text>
<text text-anchor="middle" x="398.5" y="-156" font-family="sans" font-size="10.00">path: out/whatshap</text>
</g>
<!-- 3&#45;&gt;2 -->
<g id="edge2" class="edge">
<title>3&#45;&gt;2</title>
<path fill="none" stroke="grey" stroke-width="2" d="M398.5,-148.69C398.5,-140.91 398.5,-131.84 398.5,-123.45"/>
<polygon fill="grey" stroke="grey" stroke-width="2" points="402,-123.32 398.5,-113.32 395,-123.32 402,-123.32"/>
</g>
<!-- 4 -->
<g id="node4" class="node">
<title>4</title>
<path fill="none" stroke="#d8c356" stroke-width="2" d="M413.5,-262C413.5,-262 383.5,-262 383.5,-262 377.5,-262 371.5,-256 371.5,-250 371.5,-250 371.5,-238 371.5,-238 371.5,-232 377.5,-226 383.5,-226 383.5,-226 413.5,-226 413.5,-226 419.5,-226 425.5,-232 425.5,-238 425.5,-238 425.5,-250 425.5,-250 425.5,-256 419.5,-262 413.5,-262"/>
<text text-anchor="middle" x="398.5" y="-241.5" font-family="sans" font-size="10.00">phase</text>
</g>
<!-- 4&#45;&gt;3 -->
<g id="edge3" class="edge">
<title>4&#45;&gt;3</title>
<path fill="none" stroke="grey" stroke-width="2" d="M398.5,-225.82C398.5,-218.2 398.5,-209 398.5,-200.32"/>
<polygon fill="grey" stroke="grey" stroke-width="2" points="402,-200.12 398.5,-190.12 395,-200.12 402,-200.12"/>
</g>
<!-- 5 -->
<g id="node5" class="node">
<title>5</title>
<path fill="none" stroke="#ced856" stroke-width="2" d="M316.5,-416C316.5,-416 132.5,-416 132.5,-416 126.5,-416 120.5,-410 120.5,-404 120.5,-404 120.5,-387 120.5,-387 120.5,-381 126.5,-375 132.5,-375 132.5,-375 316.5,-375 316.5,-375 322.5,-375 328.5,-381 328.5,-387 328.5,-387 328.5,-404 328.5,-404 328.5,-410 322.5,-416 316.5,-416"/>
<text text-anchor="middle" x="224.5" y="-404" font-family="sans" font-size="10.00">index_vcf</text>
<text text-anchor="middle" x="224.5" y="-393" font-family="sans" font-size="10.00">file: NC_037640.1</text>
<text text-anchor="middle" x="224.5" y="-382" font-family="sans" font-size="10.00">path: out/processed_for_whatshap/pool</text>
</g>
<!-- 5&#45;&gt;4 -->
<g id="edge4" class="edge">
<title>5&#45;&gt;4</title>
<path fill="none" stroke="grey" stroke-width="2" d="M229.27,-374.97C235.45,-353.49 248.15,-319.21 270.5,-298 295.83,-273.96 333.59,-260.14 361.54,-252.68"/>
<polygon fill="grey" stroke="grey" stroke-width="2" points="362.51,-256.05 371.35,-250.22 360.8,-249.26 362.51,-256.05"/>
</g>
<!-- 6 -->
<g id="node6" class="node">
<title>6</title>
<path fill="none" stroke="#d87556" stroke-width="2" d="M253.5,-637C253.5,-637 195.5,-637 195.5,-637 189.5,-637 183.5,-631 183.5,-625 183.5,-625 183.5,-613 183.5,-613 183.5,-607 189.5,-601 195.5,-601 195.5,-601 253.5,-601 253.5,-601 259.5,-601 265.5,-607 265.5,-613 265.5,-613 265.5,-625 265.5,-625 265.5,-631 259.5,-637 253.5,-637"/>
<text text-anchor="middle" x="224.5" y="-616.5" font-family="sans" font-size="10.00">sort_pool_vcf</text>
</g>
<!-- 6&#45;&gt;5 -->
<g id="edge9" class="edge">
<title>6&#45;&gt;5</title>
<path fill="none" stroke="grey" stroke-width="2" d="M224.5,-600.99C224.5,-563.49 224.5,-473.33 224.5,-426.25"/>
<polygon fill="grey" stroke="grey" stroke-width="2" points="228,-426.08 224.5,-416.08 221,-426.08 228,-426.08"/>
</g>
<!-- 7 -->
<g id="node7" class="node">
<title>7</title>
<path fill="none" stroke="#568ad8" stroke-width="2" d="M263.5,-711.5C263.5,-711.5 185.5,-711.5 185.5,-711.5 179.5,-711.5 173.5,-705.5 173.5,-699.5 173.5,-699.5 173.5,-687.5 173.5,-687.5 173.5,-681.5 179.5,-675.5 185.5,-675.5 185.5,-675.5 263.5,-675.5 263.5,-675.5 269.5,-675.5 275.5,-681.5 275.5,-687.5 275.5,-687.5 275.5,-699.5 275.5,-699.5 275.5,-705.5 269.5,-711.5 263.5,-711.5"/>
<text text-anchor="middle" x="224.5" y="-696.5" font-family="sans" font-size="10.00">merge_pool_vcf</text>
<text text-anchor="middle" x="224.5" y="-685.5" font-family="sans" font-size="10.00">chr: NC_037640.1</text>
</g>
<!-- 7&#45;&gt;6 -->
<g id="edge10" class="edge">
<title>7&#45;&gt;6</title>
<path fill="none" stroke="grey" stroke-width="2" d="M224.5,-675.32C224.5,-666.92 224.5,-656.62 224.5,-647.19"/>
<polygon fill="grey" stroke="grey" stroke-width="2" points="228,-647.06 224.5,-637.06 221,-647.06 228,-647.06"/>
</g>
<!-- 8 -->
<g id="node8" class="node">
<title>8</title>
<path fill="none" stroke="#ced856" stroke-width="2" d="M133,-791C133,-791 12,-791 12,-791 6,-791 0,-785 0,-779 0,-779 0,-762 0,-762 0,-756 6,-750 12,-750 12,-750 133,-750 133,-750 139,-750 145,-756 145,-762 145,-762 145,-779 145,-779 145,-785 139,-791 133,-791"/>
<text text-anchor="middle" x="72.5" y="-779" font-family="sans" font-size="10.00">index_vcf</text>
<text text-anchor="middle" x="72.5" y="-768" font-family="sans" font-size="10.00">file: NC_037640.1</text>
<text text-anchor="middle" x="72.5" y="-757" font-family="sans" font-size="10.00">path: out/indivs/pool/BB34</text>
</g>
<!-- 8&#45;&gt;7 -->
<g id="edge11" class="edge">
<title>8&#45;&gt;7</title>
<path fill="none" stroke="grey" stroke-width="2" d="M112.04,-749.99C133.13,-739.58 159.13,-726.76 180.81,-716.06"/>
<polygon fill="grey" stroke="grey" stroke-width="2" points="182.4,-719.18 189.81,-711.61 179.3,-712.9 182.4,-719.18"/>
</g>
<!-- 9 -->
<g id="node9" class="node">
<title>9</title>
<path fill="none" stroke="#b6d856" stroke-width="2" d="M123.5,-868C123.5,-868 45.5,-868 45.5,-868 39.5,-868 33.5,-862 33.5,-856 33.5,-856 33.5,-839 33.5,-839 33.5,-833 39.5,-827 45.5,-827 45.5,-827 123.5,-827 123.5,-827 129.5,-827 135.5,-833 135.5,-839 135.5,-839 135.5,-856 135.5,-856 135.5,-862 129.5,-868 123.5,-868"/>
<text text-anchor="middle" x="84.5" y="-856" font-family="sans" font-size="10.00">pool_vcf</text>
<text text-anchor="middle" x="84.5" y="-845" font-family="sans" font-size="10.00">chr: NC_037640.1</text>
<text text-anchor="middle" x="84.5" y="-834" font-family="sans" font-size="10.00">indiv: BB34</text>
</g>
<!-- 9&#45;&gt;8 -->
<g id="edge13" class="edge">
<title>9&#45;&gt;8</title>
<path fill="none" stroke="grey" stroke-width="2" d="M81.35,-826.79C80.09,-818.96 78.62,-809.77 77.25,-801.16"/>
<polygon fill="grey" stroke="grey" stroke-width="2" points="80.67,-800.4 75.63,-791.07 73.76,-801.5 80.67,-800.4"/>
</g>
<!-- 10 -->
<g id="node10" class="node">
<title>10</title>
<path fill="none" stroke="#ced856" stroke-width="2" d="M252,-945C252,-945 169,-945 169,-945 163,-945 157,-939 157,-933 157,-933 157,-916 157,-916 157,-910 163,-904 169,-904 169,-904 252,-904 252,-904 258,-904 264,-910 264,-916 264,-916 264,-933 264,-933 264,-939 258,-945 252,-945"/>
<text text-anchor="middle" x="210.5" y="-933" font-family="sans" font-size="10.00">index_vcf</text>
<text text-anchor="middle" x="210.5" y="-922" font-family="sans" font-size="10.00">file: pool</text>
<text text-anchor="middle" x="210.5" y="-911" font-family="sans" font-size="10.00">path: out/renamed</text>
</g>
<!-- 10&#45;&gt;9 -->
<g id="edge14" class="edge">
<title>10&#45;&gt;9</title>
<path fill="none" stroke="grey" stroke-width="2" d="M177.72,-903.99C162.1,-894.69 143.22,-883.45 126.55,-873.53"/>
<polygon fill="grey" stroke="grey" stroke-width="2" points="127.93,-870.28 117.55,-868.17 124.35,-876.29 127.93,-870.28"/>
</g>
<!-- 16 -->
<g id="node16" class="node">
<title>16</title>
<path fill="none" stroke="#b6d856" stroke-width="2" d="M254.5,-868C254.5,-868 176.5,-868 176.5,-868 170.5,-868 164.5,-862 164.5,-856 164.5,-856 164.5,-839 164.5,-839 164.5,-833 170.5,-827 176.5,-827 176.5,-827 254.5,-827 254.5,-827 260.5,-827 266.5,-833 266.5,-839 266.5,-839 266.5,-856 266.5,-856 266.5,-862 260.5,-868 254.5,-868"/>
<text text-anchor="middle" x="215.5" y="-856" font-family="sans" font-size="10.00">pool_vcf</text>
<text text-anchor="middle" x="215.5" y="-845" font-family="sans" font-size="10.00">chr: NC_037640.1</text>
<text text-anchor="middle" x="215.5" y="-834" font-family="sans" font-size="10.00">indiv: BB42</text>
</g>
<!-- 10&#45;&gt;16 -->
<g id="edge20" class="edge">
<title>10&#45;&gt;16</title>
<path fill="none" stroke="grey" stroke-width="2" d="M211.81,-903.79C212.34,-895.96 212.95,-886.77 213.52,-878.16"/>
<polygon fill="grey" stroke="grey" stroke-width="2" points="217.02,-878.28 214.2,-868.07 210.04,-877.82 217.02,-878.28"/>
</g>
<!-- 11 -->
<g id="node11" class="node">
<title>11</title>
<path fill="none" stroke="#d8ac56" stroke-width="2" d="M238.5,-1017C238.5,-1017 182.5,-1017 182.5,-1017 176.5,-1017 170.5,-1011 170.5,-1005 170.5,-1005 170.5,-993 170.5,-993 170.5,-987 176.5,-981 182.5,-981 182.5,-981 238.5,-981 238.5,-981 244.5,-981 250.5,-987 250.5,-993 250.5,-993 250.5,-1005 250.5,-1005 250.5,-1011 244.5,-1017 238.5,-1017"/>
<text text-anchor="middle" x="210.5" y="-1002" font-family="sans" font-size="10.00">reheader_vcf</text>
<text text-anchor="middle" x="210.5" y="-991" font-family="sans" font-size="10.00">set: pool</text>
</g>
<!-- 11&#45;&gt;10 -->
<g id="edge15" class="edge">
<title>11&#45;&gt;10</title>
<path fill="none" stroke="grey" stroke-width="2" d="M210.5,-980.82C210.5,-973.2 210.5,-964 210.5,-955.32"/>
<polygon fill="grey" stroke="grey" stroke-width="2" points="214,-955.12 210.5,-945.12 207,-955.12 214,-955.12"/>
</g>
<!-- 12 -->
<g id="node12" class="node">
<title>12</title>
<path fill="none" stroke="#ced856" stroke-width="2" d="M230.5,-1094C230.5,-1094 170.5,-1094 170.5,-1094 164.5,-1094 158.5,-1088 158.5,-1082 158.5,-1082 158.5,-1065 158.5,-1065 158.5,-1059 164.5,-1053 170.5,-1053 170.5,-1053 230.5,-1053 230.5,-1053 236.5,-1053 242.5,-1059 242.5,-1065 242.5,-1065 242.5,-1082 242.5,-1082 242.5,-1088 236.5,-1094 230.5,-1094"/>
<text text-anchor="middle" x="200.5" y="-1082" font-family="sans" font-size="10.00">index_vcf</text>
<text text-anchor="middle" x="200.5" y="-1071" font-family="sans" font-size="10.00">file: pool</text>
<text text-anchor="middle" x="200.5" y="-1060" font-family="sans" font-size="10.00">path: out/split</text>
</g>
<!-- 12&#45;&gt;11 -->
<g id="edge16" class="edge">
<title>12&#45;&gt;11</title>
<path fill="none" stroke="grey" stroke-width="2" d="M203.23,-1052.69C204.31,-1044.91 205.56,-1035.84 206.71,-1027.45"/>
<polygon fill="grey" stroke="grey" stroke-width="2" points="210.21,-1027.7 208.11,-1017.32 203.28,-1026.75 210.21,-1027.7"/>
</g>
<!-- 13 -->
<g id="node13" class="node">
<title>13</title>
<path fill="none" stroke="#56d8b9" stroke-width="2" d="M218,-1166C218,-1166 183,-1166 183,-1166 177,-1166 171,-1160 171,-1154 171,-1154 171,-1142 171,-1142 171,-1136 177,-1130 183,-1130 183,-1130 218,-1130 218,-1130 224,-1130 230,-1136 230,-1142 230,-1142 230,-1154 230,-1154 230,-1160 224,-1166 218,-1166"/>
<text text-anchor="middle" x="200.5" y="-1151" font-family="sans" font-size="10.00">split_vcf</text>
<text text-anchor="middle" x="200.5" y="-1140" font-family="sans" font-size="10.00">set: pool</text>
</g>
<!-- 13&#45;&gt;12 -->
<g id="edge18" class="edge">
<title>13&#45;&gt;12</title>
<path fill="none" stroke="grey" stroke-width="2" d="M200.5,-1129.82C200.5,-1122.2 200.5,-1113 200.5,-1104.32"/>
<polygon fill="grey" stroke="grey" stroke-width="2" points="204,-1104.12 200.5,-1094.12 197,-1104.12 204,-1104.12"/>
</g>
<!-- 14 -->
<g id="node14" class="node">
<title>14</title>
<path fill="none" stroke="#56d8d0" stroke-width="2" d="M320,-1091.5C320,-1091.5 273,-1091.5 273,-1091.5 267,-1091.5 261,-1085.5 261,-1079.5 261,-1079.5 261,-1067.5 261,-1067.5 261,-1061.5 267,-1055.5 273,-1055.5 273,-1055.5 320,-1055.5 320,-1055.5 326,-1055.5 332,-1061.5 332,-1067.5 332,-1067.5 332,-1079.5 332,-1079.5 332,-1085.5 326,-1091.5 320,-1091.5"/>
<text text-anchor="middle" x="296.5" y="-1071" font-family="sans" font-size="10.00">header_file</text>
</g>
<!-- 14&#45;&gt;11 -->
<g id="edge17" class="edge">
<title>14&#45;&gt;11</title>
<path fill="none" stroke="grey" stroke-width="2" d="M276.12,-1055.32C264.87,-1045.84 250.74,-1033.93 238.48,-1023.58"/>
<polygon fill="grey" stroke="grey" stroke-width="2" points="240.64,-1020.83 230.73,-1017.06 236.12,-1026.18 240.64,-1020.83"/>
</g>
<!-- 31 -->
<g id="node31" class="node">
<title>31</title>
<path fill="none" stroke="#d8ac56" stroke-width="2" d="M419.5,-1017C419.5,-1017 363.5,-1017 363.5,-1017 357.5,-1017 351.5,-1011 351.5,-1005 351.5,-1005 351.5,-993 351.5,-993 351.5,-987 357.5,-981 363.5,-981 363.5,-981 419.5,-981 419.5,-981 425.5,-981 431.5,-987 431.5,-993 431.5,-993 431.5,-1005 431.5,-1005 431.5,-1011 425.5,-1017 419.5,-1017"/>
<text text-anchor="middle" x="391.5" y="-1002" font-family="sans" font-size="10.00">reheader_vcf</text>
<text text-anchor="middle" x="391.5" y="-991" font-family="sans" font-size="10.00">set: drone</text>
</g>
<!-- 14&#45;&gt;31 -->
<g id="edge36" class="edge">
<title>14&#45;&gt;31</title>
<path fill="none" stroke="grey" stroke-width="2" d="M319.01,-1055.32C331.55,-1045.75 347.34,-1033.7 360.98,-1023.29"/>
<polygon fill="grey" stroke="grey" stroke-width="2" points="363.32,-1025.91 369.15,-1017.06 359.08,-1020.34 363.32,-1025.91"/>
</g>
<!-- 15 -->
<g id="node15" class="node">
<title>15</title>
<path fill="none" stroke="#ced856" stroke-width="2" d="M296,-791C296,-791 175,-791 175,-791 169,-791 163,-785 163,-779 163,-779 163,-762 163,-762 163,-756 169,-750 175,-750 175,-750 296,-750 296,-750 302,-750 308,-756 308,-762 308,-762 308,-779 308,-779 308,-785 302,-791 296,-791"/>
<text text-anchor="middle" x="235.5" y="-779" font-family="sans" font-size="10.00">index_vcf</text>
<text text-anchor="middle" x="235.5" y="-768" font-family="sans" font-size="10.00">file: NC_037640.1</text>
<text text-anchor="middle" x="235.5" y="-757" font-family="sans" font-size="10.00">path: out/indivs/pool/BB42</text>
</g>
<!-- 15&#45;&gt;7 -->
<g id="edge12" class="edge">
<title>15&#45;&gt;7</title>
<path fill="none" stroke="grey" stroke-width="2" d="M232.61,-749.79C231.35,-741.22 229.86,-731.02 228.5,-721.74"/>
<polygon fill="grey" stroke="grey" stroke-width="2" points="231.95,-721.16 227.03,-711.78 225.02,-722.18 231.95,-721.16"/>
</g>
<!-- 16&#45;&gt;15 -->
<g id="edge19" class="edge">
<title>16&#45;&gt;15</title>
<path fill="none" stroke="grey" stroke-width="2" d="M220.75,-826.79C222.87,-818.87 225.35,-809.57 227.67,-800.88"/>
<polygon fill="grey" stroke="grey" stroke-width="2" points="231.09,-801.64 230.28,-791.07 224.32,-799.83 231.09,-801.64"/>
</g>
<!-- 17 -->
<g id="node17" class="node">
<title>17</title>
<path fill="none" stroke="#56a9d8" stroke-width="2" d="M682,-413.5C682,-413.5 631,-413.5 631,-413.5 625,-413.5 619,-407.5 619,-401.5 619,-401.5 619,-389.5 619,-389.5 619,-383.5 625,-377.5 631,-377.5 631,-377.5 682,-377.5 682,-377.5 688,-377.5 694,-383.5 694,-389.5 694,-389.5 694,-401.5 694,-401.5 694,-407.5 688,-413.5 682,-413.5"/>
<text text-anchor="middle" x="656.5" y="-398.5" font-family="sans" font-size="10.00">merge_bam</text>
<text text-anchor="middle" x="656.5" y="-387.5" font-family="sans" font-size="10.00">type: pool</text>
</g>
<!-- 17&#45;&gt;4 -->
<g id="edge5" class="edge">
<title>17&#45;&gt;4</title>
<path fill="none" stroke="grey" stroke-width="2" d="M618.55,-377.64C598.31,-367.79 573.52,-354.29 553.5,-339 533.51,-323.73 534.98,-312.6 514.5,-298 490.1,-280.6 459.07,-266.78 435.25,-257.63"/>
<polygon fill="grey" stroke="grey" stroke-width="2" points="436.44,-254.33 425.85,-254.11 433.99,-260.89 436.44,-254.33"/>
</g>
<!-- 22 -->
<g id="node22" class="node">
<title>22</title>
<path fill="none" stroke="#56d89a" stroke-width="2" d="M758.5,-339C758.5,-339 574.5,-339 574.5,-339 568.5,-339 562.5,-333 562.5,-327 562.5,-327 562.5,-310 562.5,-310 562.5,-304 568.5,-298 574.5,-298 574.5,-298 758.5,-298 758.5,-298 764.5,-298 770.5,-304 770.5,-310 770.5,-310 770.5,-327 770.5,-327 770.5,-333 764.5,-339 758.5,-339"/>
<text text-anchor="middle" x="666.5" y="-327" font-family="sans" font-size="10.00">index_bamfile</text>
<text text-anchor="middle" x="666.5" y="-316" font-family="sans" font-size="10.00">file: NC_037640.1</text>
<text text-anchor="middle" x="666.5" y="-305" font-family="sans" font-size="10.00">path: out/processed_for_whatshap/pool</text>
</g>
<!-- 17&#45;&gt;22 -->
<g id="edge25" class="edge">
<title>17&#45;&gt;22</title>
<path fill="none" stroke="grey" stroke-width="2" d="M658.77,-377.48C659.89,-369.1 661.27,-358.76 662.55,-349.13"/>
<polygon fill="grey" stroke="grey" stroke-width="2" points="666.03,-349.48 663.89,-339.1 659.1,-348.55 666.03,-349.48"/>
</g>
<!-- 18 -->
<g id="node18" class="node">
<title>18</title>
<path fill="none" stroke="#5673d8" stroke-width="2" d="M675,-488C675,-488 618,-488 618,-488 612,-488 606,-482 606,-476 606,-476 606,-464 606,-464 606,-458 612,-452 618,-452 618,-452 675,-452 675,-452 681,-452 687,-458 687,-464 687,-464 687,-476 687,-476 687,-482 681,-488 675,-488"/>
<text text-anchor="middle" x="646.5" y="-467.5" font-family="sans" font-size="10.00">rename_bam</text>
</g>
<!-- 18&#45;&gt;17 -->
<g id="edge21" class="edge">
<title>18&#45;&gt;17</title>
<path fill="none" stroke="grey" stroke-width="2" d="M648.87,-451.82C650.03,-443.42 651.45,-433.12 652.75,-423.69"/>
<polygon fill="grey" stroke="grey" stroke-width="2" points="656.25,-423.94 654.15,-413.56 649.31,-422.99 656.25,-423.94"/>
</g>
<!-- 19 -->
<g id="node19" class="node">
<title>19</title>
<path fill="none" stroke="#d85656" stroke-width="2" d="M675.5,-565C675.5,-565 595.5,-565 595.5,-565 589.5,-565 583.5,-559 583.5,-553 583.5,-553 583.5,-536 583.5,-536 583.5,-530 589.5,-524 595.5,-524 595.5,-524 675.5,-524 675.5,-524 681.5,-524 687.5,-530 687.5,-536 687.5,-536 687.5,-553 687.5,-553 687.5,-559 681.5,-565 675.5,-565"/>
<text text-anchor="middle" x="635.5" y="-553" font-family="sans" font-size="10.00">extract_pool_bam</text>
<text text-anchor="middle" x="635.5" y="-542" font-family="sans" font-size="10.00">chr: NC_037640.1</text>
<text text-anchor="middle" x="635.5" y="-531" font-family="sans" font-size="10.00">indiv: BB34</text>
</g>
<!-- 19&#45;&gt;18 -->
<g id="edge23" class="edge">
<title>19&#45;&gt;18</title>
<path fill="none" stroke="grey" stroke-width="2" d="M638.51,-523.69C639.69,-515.91 641.06,-506.84 642.34,-498.45"/>
<polygon fill="grey" stroke="grey" stroke-width="2" points="645.83,-498.73 643.87,-488.32 638.91,-497.68 645.83,-498.73"/>
</g>
<!-- 20 -->
<g id="node20" class="node">
<title>20</title>
<path fill="none" stroke="#5673d8" stroke-width="2" d="M780,-488C780,-488 723,-488 723,-488 717,-488 711,-482 711,-476 711,-476 711,-464 711,-464 711,-458 717,-452 723,-452 723,-452 780,-452 780,-452 786,-452 792,-458 792,-464 792,-464 792,-476 792,-476 792,-482 786,-488 780,-488"/>
<text text-anchor="middle" x="751.5" y="-467.5" font-family="sans" font-size="10.00">rename_bam</text>
</g>
<!-- 20&#45;&gt;17 -->
<g id="edge22" class="edge">
<title>20&#45;&gt;17</title>
<path fill="none" stroke="grey" stroke-width="2" d="M728.99,-451.82C716.45,-442.25 700.66,-430.2 687.02,-419.79"/>
<polygon fill="grey" stroke="grey" stroke-width="2" points="688.92,-416.84 678.85,-413.56 684.68,-422.41 688.92,-416.84"/>
</g>
<!-- 21 -->
<g id="node21" class="node">
<title>21</title>
<path fill="none" stroke="#d85656" stroke-width="2" d="M797.5,-565C797.5,-565 717.5,-565 717.5,-565 711.5,-565 705.5,-559 705.5,-553 705.5,-553 705.5,-536 705.5,-536 705.5,-530 711.5,-524 717.5,-524 717.5,-524 797.5,-524 797.5,-524 803.5,-524 809.5,-530 809.5,-536 809.5,-536 809.5,-553 809.5,-553 809.5,-559 803.5,-565 797.5,-565"/>
<text text-anchor="middle" x="757.5" y="-553" font-family="sans" font-size="10.00">extract_pool_bam</text>
<text text-anchor="middle" x="757.5" y="-542" font-family="sans" font-size="10.00">chr: NC_037640.1</text>
<text text-anchor="middle" x="757.5" y="-531" font-family="sans" font-size="10.00">indiv: BB42</text>
</g>
<!-- 21&#45;&gt;20 -->
<g id="edge24" class="edge">
<title>21&#45;&gt;20</title>
<path fill="none" stroke="grey" stroke-width="2" d="M755.86,-523.69C755.22,-515.91 754.47,-506.84 753.77,-498.45"/>
<polygon fill="grey" stroke="grey" stroke-width="2" points="757.25,-498 752.93,-488.32 750.27,-498.57 757.25,-498"/>
</g>
<!-- 22&#45;&gt;4 -->
<g id="edge6" class="edge">
<title>22&#45;&gt;4</title>
<path fill="none" stroke="grey" stroke-width="2" d="M594.33,-297.98C543.02,-284.1 476.22,-266.03 435.39,-254.98"/>
<polygon fill="grey" stroke="grey" stroke-width="2" points="436.17,-251.56 425.6,-252.33 434.34,-258.32 436.17,-251.56"/>
</g>
<!-- 23 -->
<g id="node23" class="node">
<title>23</title>
<path fill="none" stroke="#56a9d8" stroke-width="2" d="M422,-413.5C422,-413.5 371,-413.5 371,-413.5 365,-413.5 359,-407.5 359,-401.5 359,-401.5 359,-389.5 359,-389.5 359,-383.5 365,-377.5 371,-377.5 371,-377.5 422,-377.5 422,-377.5 428,-377.5 434,-383.5 434,-389.5 434,-389.5 434,-401.5 434,-401.5 434,-407.5 428,-413.5 422,-413.5"/>
<text text-anchor="middle" x="396.5" y="-398.5" font-family="sans" font-size="10.00">merge_bam</text>
<text text-anchor="middle" x="396.5" y="-387.5" font-family="sans" font-size="10.00">type: drone</text>
</g>
<!-- 23&#45;&gt;4 -->
<g id="edge7" class="edge">
<title>23&#45;&gt;4</title>
<path fill="none" stroke="grey" stroke-width="2" d="M358.82,-381.3C328.81,-369.94 290.4,-353.18 281.5,-339 271.81,-323.57 271.62,-313.31 281.5,-298 299.02,-270.83 334.22,-257.44 361.46,-250.93"/>
<polygon fill="grey" stroke="grey" stroke-width="2" points="362.42,-254.3 371.45,-248.76 360.94,-247.46 362.42,-254.3"/>
</g>
<!-- 40 -->
<g id="node40" class="node">
<title>40</title>
<path fill="none" stroke="#56d89a" stroke-width="2" d="M494,-339C494,-339 303,-339 303,-339 297,-339 291,-333 291,-327 291,-327 291,-310 291,-310 291,-304 297,-298 303,-298 303,-298 494,-298 494,-298 500,-298 506,-304 506,-310 506,-310 506,-327 506,-327 506,-333 500,-339 494,-339"/>
<text text-anchor="middle" x="398.5" y="-327" font-family="sans" font-size="10.00">index_bamfile</text>
<text text-anchor="middle" x="398.5" y="-316" font-family="sans" font-size="10.00">file: NC_037640.1</text>
<text text-anchor="middle" x="398.5" y="-305" font-family="sans" font-size="10.00">path: out/processed_for_whatshap/drone</text>
</g>
<!-- 23&#45;&gt;40 -->
<g id="edge44" class="edge">
<title>23&#45;&gt;40</title>
<path fill="none" stroke="grey" stroke-width="2" d="M396.95,-377.48C397.18,-369.1 397.45,-358.76 397.71,-349.13"/>
<polygon fill="grey" stroke="grey" stroke-width="2" points="401.21,-349.19 397.98,-339.1 394.21,-349 401.21,-349.19"/>
</g>
<!-- 24 -->
<g id="node24" class="node">
<title>24</title>
<path fill="none" stroke="#56d882" stroke-width="2" d="M423.5,-488C423.5,-488 367.5,-488 367.5,-488 361.5,-488 355.5,-482 355.5,-476 355.5,-476 355.5,-464 355.5,-464 355.5,-458 361.5,-452 367.5,-452 367.5,-452 423.5,-452 423.5,-452 429.5,-452 435.5,-458 435.5,-464 435.5,-464 435.5,-476 435.5,-476 435.5,-482 429.5,-488 423.5,-488"/>
<text text-anchor="middle" x="395.5" y="-467.5" font-family="sans" font-size="10.00">sam_to_bam</text>
</g>
<!-- 24&#45;&gt;23 -->
<g id="edge26" class="edge">
<title>24&#45;&gt;23</title>
<path fill="none" stroke="grey" stroke-width="2" d="M395.74,-451.82C395.85,-443.42 395.99,-433.12 396.13,-423.69"/>
<polygon fill="grey" stroke="grey" stroke-width="2" points="399.63,-423.61 396.26,-413.56 392.63,-423.51 399.63,-423.61"/>
</g>
<!-- 25 -->
<g id="node25" class="node">
<title>25</title>
<path fill="none" stroke="#61d856" stroke-width="2" d="M412,-562.5C412,-562.5 371,-562.5 371,-562.5 365,-562.5 359,-556.5 359,-550.5 359,-550.5 359,-538.5 359,-538.5 359,-532.5 365,-526.5 371,-526.5 371,-526.5 412,-526.5 412,-526.5 418,-526.5 424,-532.5 424,-538.5 424,-538.5 424,-550.5 424,-550.5 424,-556.5 418,-562.5 412,-562.5"/>
<text text-anchor="middle" x="391.5" y="-542" font-family="sans" font-size="10.00">map_read</text>
</g>
<!-- 25&#45;&gt;24 -->
<g id="edge28" class="edge">
<title>25&#45;&gt;24</title>
<path fill="none" stroke="grey" stroke-width="2" d="M392.45,-526.32C392.91,-517.92 393.48,-507.62 394,-498.19"/>
<polygon fill="grey" stroke="grey" stroke-width="2" points="397.5,-498.24 394.56,-488.06 390.51,-497.85 397.5,-498.24"/>
</g>
<!-- 26 -->
<g id="node26" class="node">
<title>26</title>
<path fill="none" stroke="#56d863" stroke-width="2" d="M420,-637C420,-637 363,-637 363,-637 357,-637 351,-631 351,-625 351,-625 351,-613 351,-613 351,-607 357,-601 363,-601 363,-601 420,-601 420,-601 426,-601 432,-607 432,-613 432,-613 432,-625 432,-625 432,-631 426,-637 420,-637"/>
<text text-anchor="middle" x="391.5" y="-616.5" font-family="sans" font-size="10.00">rename_read</text>
</g>
<!-- 26&#45;&gt;25 -->
<g id="edge29" class="edge">
<title>26&#45;&gt;25</title>
<path fill="none" stroke="grey" stroke-width="2" d="M391.5,-600.82C391.5,-592.42 391.5,-582.12 391.5,-572.69"/>
<polygon fill="grey" stroke="grey" stroke-width="2" points="395,-572.56 391.5,-562.56 388,-572.56 395,-572.56"/>
</g>
<!-- 27 -->
<g id="node27" class="node">
<title>27</title>
<path fill="none" stroke="#97d856" stroke-width="2" d="M429.5,-714C429.5,-714 351.5,-714 351.5,-714 345.5,-714 339.5,-708 339.5,-702 339.5,-702 339.5,-685 339.5,-685 339.5,-679 345.5,-673 351.5,-673 351.5,-673 429.5,-673 429.5,-673 435.5,-673 441.5,-679 441.5,-685 441.5,-685 441.5,-702 441.5,-702 441.5,-708 435.5,-714 429.5,-714"/>
<text text-anchor="middle" x="390.5" y="-702" font-family="sans" font-size="10.00">consensus</text>
<text text-anchor="middle" x="390.5" y="-691" font-family="sans" font-size="10.00">chr: NC_037640.1</text>
<text text-anchor="middle" x="390.5" y="-680" font-family="sans" font-size="10.00">indiv: BB34</text>
</g>
<!-- 27&#45;&gt;26 -->
<g id="edge30" class="edge">
<title>27&#45;&gt;26</title>
<path fill="none" stroke="grey" stroke-width="2" d="M390.77,-672.69C390.88,-664.91 391.01,-655.84 391.12,-647.45"/>
<polygon fill="grey" stroke="grey" stroke-width="2" points="394.62,-647.37 391.26,-637.32 387.62,-647.27 394.62,-647.37"/>
</g>
<!-- 28 -->
<g id="node28" class="node">
<title>28</title>
<path fill="none" stroke="#ced856" stroke-width="2" d="M439,-791C439,-791 340,-791 340,-791 334,-791 328,-785 328,-779 328,-779 328,-762 328,-762 328,-756 334,-750 340,-750 340,-750 439,-750 439,-750 445,-750 451,-756 451,-762 451,-762 451,-779 451,-779 451,-785 445,-791 439,-791"/>
<text text-anchor="middle" x="389.5" y="-779" font-family="sans" font-size="10.00">index_vcf</text>
<text text-anchor="middle" x="389.5" y="-768" font-family="sans" font-size="10.00">file: BB34</text>
<text text-anchor="middle" x="389.5" y="-757" font-family="sans" font-size="10.00">path: out/indivs/drone</text>
</g>
<!-- 28&#45;&gt;27 -->
<g id="edge31" class="edge">
<title>28&#45;&gt;27</title>
<path fill="none" stroke="grey" stroke-width="2" d="M389.76,-749.79C389.87,-741.96 389.99,-732.77 390.1,-724.16"/>
<polygon fill="grey" stroke="grey" stroke-width="2" points="393.61,-724.12 390.24,-714.07 386.61,-724.03 393.61,-724.12"/>
</g>
<!-- 29 -->
<g id="node29" class="node">
<title>29</title>
<path fill="none" stroke="#80d856" stroke-width="2" d="M414,-865.5C414,-865.5 367,-865.5 367,-865.5 361,-865.5 355,-859.5 355,-853.5 355,-853.5 355,-841.5 355,-841.5 355,-835.5 361,-829.5 367,-829.5 367,-829.5 414,-829.5 414,-829.5 420,-829.5 426,-835.5 426,-841.5 426,-841.5 426,-853.5 426,-853.5 426,-859.5 420,-865.5 414,-865.5"/>
<text text-anchor="middle" x="390.5" y="-850.5" font-family="sans" font-size="10.00">indiv_vcf</text>
<text text-anchor="middle" x="390.5" y="-839.5" font-family="sans" font-size="10.00">indiv: BB34</text>
</g>
<!-- 29&#45;&gt;28 -->
<g id="edge32" class="edge">
<title>29&#45;&gt;28</title>
<path fill="none" stroke="grey" stroke-width="2" d="M390.27,-829.48C390.16,-821.1 390.02,-810.76 389.9,-801.13"/>
<polygon fill="grey" stroke="grey" stroke-width="2" points="393.39,-801.05 389.76,-791.1 386.4,-801.15 393.39,-801.05"/>
</g>
<!-- 30 -->
<g id="node30" class="node">
<title>30</title>
<path fill="none" stroke="#ced856" stroke-width="2" d="M433,-945C433,-945 350,-945 350,-945 344,-945 338,-939 338,-933 338,-933 338,-916 338,-916 338,-910 344,-904 350,-904 350,-904 433,-904 433,-904 439,-904 445,-910 445,-916 445,-916 445,-933 445,-933 445,-939 439,-945 433,-945"/>
<text text-anchor="middle" x="391.5" y="-933" font-family="sans" font-size="10.00">index_vcf</text>
<text text-anchor="middle" x="391.5" y="-922" font-family="sans" font-size="10.00">file: drone</text>
<text text-anchor="middle" x="391.5" y="-911" font-family="sans" font-size="10.00">path: out/renamed</text>
</g>
<!-- 30&#45;&gt;29 -->
<g id="edge33" class="edge">
<title>30&#45;&gt;29</title>
<path fill="none" stroke="grey" stroke-width="2" d="M391.24,-903.79C391.12,-895.31 390.99,-885.24 390.87,-876.04"/>
<polygon fill="grey" stroke="grey" stroke-width="2" points="394.36,-875.73 390.73,-865.78 387.36,-875.82 394.36,-875.73"/>
</g>
<!-- 39 -->
<g id="node39" class="node">
<title>39</title>
<path fill="none" stroke="#80d856" stroke-width="2" d="M529,-865.5C529,-865.5 482,-865.5 482,-865.5 476,-865.5 470,-859.5 470,-853.5 470,-853.5 470,-841.5 470,-841.5 470,-835.5 476,-829.5 482,-829.5 482,-829.5 529,-829.5 529,-829.5 535,-829.5 541,-835.5 541,-841.5 541,-841.5 541,-853.5 541,-853.5 541,-859.5 535,-865.5 529,-865.5"/>
<text text-anchor="middle" x="505.5" y="-850.5" font-family="sans" font-size="10.00">indiv_vcf</text>
<text text-anchor="middle" x="505.5" y="-839.5" font-family="sans" font-size="10.00">indiv: BB42</text>
</g>
<!-- 30&#45;&gt;39 -->
<g id="edge43" class="edge">
<title>30&#45;&gt;39</title>
<path fill="none" stroke="grey" stroke-width="2" d="M421.15,-903.99C436.41,-893.96 455.08,-881.67 470.98,-871.21"/>
<polygon fill="grey" stroke="grey" stroke-width="2" points="473.06,-874.03 479.49,-865.61 469.21,-868.19 473.06,-874.03"/>
</g>
<!-- 31&#45;&gt;30 -->
<g id="edge34" class="edge">
<title>31&#45;&gt;30</title>
<path fill="none" stroke="grey" stroke-width="2" d="M391.5,-980.82C391.5,-973.2 391.5,-964 391.5,-955.32"/>
<polygon fill="grey" stroke="grey" stroke-width="2" points="395,-955.12 391.5,-945.12 388,-955.12 395,-955.12"/>
</g>
<!-- 32 -->
<g id="node32" class="node">
<title>32</title>
<path fill="none" stroke="#ced856" stroke-width="2" d="M422.5,-1094C422.5,-1094 362.5,-1094 362.5,-1094 356.5,-1094 350.5,-1088 350.5,-1082 350.5,-1082 350.5,-1065 350.5,-1065 350.5,-1059 356.5,-1053 362.5,-1053 362.5,-1053 422.5,-1053 422.5,-1053 428.5,-1053 434.5,-1059 434.5,-1065 434.5,-1065 434.5,-1082 434.5,-1082 434.5,-1088 428.5,-1094 422.5,-1094"/>
<text text-anchor="middle" x="392.5" y="-1082" font-family="sans" font-size="10.00">index_vcf</text>
<text text-anchor="middle" x="392.5" y="-1071" font-family="sans" font-size="10.00">file: drone</text>
<text text-anchor="middle" x="392.5" y="-1060" font-family="sans" font-size="10.00">path: out/split</text>
</g>
<!-- 32&#45;&gt;31 -->
<g id="edge35" class="edge">
<title>32&#45;&gt;31</title>
<path fill="none" stroke="grey" stroke-width="2" d="M392.23,-1052.69C392.12,-1044.91 391.99,-1035.84 391.88,-1027.45"/>
<polygon fill="grey" stroke="grey" stroke-width="2" points="395.38,-1027.27 391.74,-1017.32 388.38,-1027.37 395.38,-1027.27"/>
</g>
<!-- 33 -->
<g id="node33" class="node">
<title>33</title>
<path fill="none" stroke="#56d8b9" stroke-width="2" d="M413,-1166C413,-1166 372,-1166 372,-1166 366,-1166 360,-1160 360,-1154 360,-1154 360,-1142 360,-1142 360,-1136 366,-1130 372,-1130 372,-1130 413,-1130 413,-1130 419,-1130 425,-1136 425,-1142 425,-1142 425,-1154 425,-1154 425,-1160 419,-1166 413,-1166"/>
<text text-anchor="middle" x="392.5" y="-1151" font-family="sans" font-size="10.00">split_vcf</text>
<text text-anchor="middle" x="392.5" y="-1140" font-family="sans" font-size="10.00">set: drone</text>
</g>
<!-- 33&#45;&gt;32 -->
<g id="edge37" class="edge">
<title>33&#45;&gt;32</title>
<path fill="none" stroke="grey" stroke-width="2" d="M392.5,-1129.82C392.5,-1122.2 392.5,-1113 392.5,-1104.32"/>
<polygon fill="grey" stroke="grey" stroke-width="2" points="396,-1104.12 392.5,-1094.12 389,-1104.12 396,-1104.12"/>
</g>
<!-- 34 -->
<g id="node34" class="node">
<title>34</title>
<path fill="none" stroke="#56d882" stroke-width="2" d="M527.5,-488C527.5,-488 471.5,-488 471.5,-488 465.5,-488 459.5,-482 459.5,-476 459.5,-476 459.5,-464 459.5,-464 459.5,-458 465.5,-452 471.5,-452 471.5,-452 527.5,-452 527.5,-452 533.5,-452 539.5,-458 539.5,-464 539.5,-464 539.5,-476 539.5,-476 539.5,-482 533.5,-488 527.5,-488"/>
<text text-anchor="middle" x="499.5" y="-467.5" font-family="sans" font-size="10.00">sam_to_bam</text>
</g>
<!-- 34&#45;&gt;23 -->
<g id="edge27" class="edge">
<title>34&#45;&gt;23</title>
<path fill="none" stroke="grey" stroke-width="2" d="M475.09,-451.82C461.37,-442.16 444.05,-429.97 429.17,-419.5"/>
<polygon fill="grey" stroke="grey" stroke-width="2" points="430.93,-416.45 420.73,-413.56 426.9,-422.18 430.93,-416.45"/>
</g>
<!-- 35 -->
<g id="node35" class="node">
<title>35</title>
<path fill="none" stroke="#61d856" stroke-width="2" d="M523,-562.5C523,-562.5 482,-562.5 482,-562.5 476,-562.5 470,-556.5 470,-550.5 470,-550.5 470,-538.5 470,-538.5 470,-532.5 476,-526.5 482,-526.5 482,-526.5 523,-526.5 523,-526.5 529,-526.5 535,-532.5 535,-538.5 535,-538.5 535,-550.5 535,-550.5 535,-556.5 529,-562.5 523,-562.5"/>
<text text-anchor="middle" x="502.5" y="-542" font-family="sans" font-size="10.00">map_read</text>
</g>
<!-- 35&#45;&gt;34 -->
<g id="edge38" class="edge">
<title>35&#45;&gt;34</title>
<path fill="none" stroke="grey" stroke-width="2" d="M501.79,-526.32C501.44,-517.92 501.02,-507.62 500.62,-498.19"/>
<polygon fill="grey" stroke="grey" stroke-width="2" points="504.12,-497.9 500.21,-488.06 497.12,-498.19 504.12,-497.9"/>
</g>
<!-- 36 -->
<g id="node36" class="node">
<title>36</title>
<path fill="none" stroke="#56d863" stroke-width="2" d="M534,-637C534,-637 477,-637 477,-637 471,-637 465,-631 465,-625 465,-625 465,-613 465,-613 465,-607 471,-601 477,-601 477,-601 534,-601 534,-601 540,-601 546,-607 546,-613 546,-613 546,-625 546,-625 546,-631 540,-637 534,-637"/>
<text text-anchor="middle" x="505.5" y="-616.5" font-family="sans" font-size="10.00">rename_read</text>
</g>
<!-- 36&#45;&gt;35 -->
<g id="edge39" class="edge">
<title>36&#45;&gt;35</title>
<path fill="none" stroke="grey" stroke-width="2" d="M504.79,-600.82C504.44,-592.42 504.02,-582.12 503.62,-572.69"/>
<polygon fill="grey" stroke="grey" stroke-width="2" points="507.12,-572.4 503.21,-562.56 500.12,-572.69 507.12,-572.4"/>
</g>
<!-- 37 -->
<g id="node37" class="node">
<title>37</title>
<path fill="none" stroke="#97d856" stroke-width="2" d="M559.5,-714C559.5,-714 481.5,-714 481.5,-714 475.5,-714 469.5,-708 469.5,-702 469.5,-702 469.5,-685 469.5,-685 469.5,-679 475.5,-673 481.5,-673 481.5,-673 559.5,-673 559.5,-673 565.5,-673 571.5,-679 571.5,-685 571.5,-685 571.5,-702 571.5,-702 571.5,-708 565.5,-714 559.5,-714"/>
<text text-anchor="middle" x="520.5" y="-702" font-family="sans" font-size="10.00">consensus</text>
<text text-anchor="middle" x="520.5" y="-691" font-family="sans" font-size="10.00">chr: NC_037640.1</text>
<text text-anchor="middle" x="520.5" y="-680" font-family="sans" font-size="10.00">indiv: BB42</text>
</g>
<!-- 37&#45;&gt;36 -->
<g id="edge40" class="edge">
<title>37&#45;&gt;36</title>
<path fill="none" stroke="grey" stroke-width="2" d="M516.4,-672.69C514.77,-664.82 512.87,-655.64 511.12,-647.17"/>
<polygon fill="grey" stroke="grey" stroke-width="2" points="514.54,-646.4 509.08,-637.32 507.68,-647.82 514.54,-646.4"/>
</g>
<!-- 38 -->
<g id="node38" class="node">
<title>38</title>
<path fill="none" stroke="#ced856" stroke-width="2" d="M580,-791C580,-791 481,-791 481,-791 475,-791 469,-785 469,-779 469,-779 469,-762 469,-762 469,-756 475,-750 481,-750 481,-750 580,-750 580,-750 586,-750 592,-756 592,-762 592,-762 592,-779 592,-779 592,-785 586,-791 580,-791"/>
<text text-anchor="middle" x="530.5" y="-779" font-family="sans" font-size="10.00">index_vcf</text>
<text text-anchor="middle" x="530.5" y="-768" font-family="sans" font-size="10.00">file: BB42</text>
<text text-anchor="middle" x="530.5" y="-757" font-family="sans" font-size="10.00">path: out/indivs/drone</text>
</g>
<!-- 38&#45;&gt;37 -->
<g id="edge41" class="edge">
<title>38&#45;&gt;37</title>
<path fill="none" stroke="grey" stroke-width="2" d="M527.87,-749.79C526.83,-741.96 525.6,-732.77 524.45,-724.16"/>
<polygon fill="grey" stroke="grey" stroke-width="2" points="527.9,-723.52 523.11,-714.07 520.96,-724.45 527.9,-723.52"/>
</g>
<!-- 39&#45;&gt;38 -->
<g id="edge42" class="edge">
<title>39&#45;&gt;38</title>
<path fill="none" stroke="grey" stroke-width="2" d="M511.17,-829.48C514,-821.01 517.49,-810.53 520.72,-800.83"/>
<polygon fill="grey" stroke="grey" stroke-width="2" points="524.12,-801.69 523.97,-791.1 517.48,-799.48 524.12,-801.69"/>
</g>
<!-- 40&#45;&gt;4 -->
<g id="edge8" class="edge">
<title>40&#45;&gt;4</title>
<path fill="none" stroke="grey" stroke-width="2" d="M398.5,-297.69C398.5,-289.91 398.5,-280.84 398.5,-272.45"/>
<polygon fill="grey" stroke="grey" stroke-width="2" points="402,-272.32 398.5,-262.32 395,-272.32 402,-272.32"/>
</g>
</g>
</svg>
