<?xml version="1.0" encoding="UTF-8" standalone="no"?>
<!DOCTYPE svg PUBLIC "-//W3C//DTD SVG 1.1//EN"
 "http://www.w3.org/Graphics/SVG/1.1/DTD/svg11.dtd">
<!-- Generated by graphviz version 2.43.0 (0)
 -->
<!-- Title: snakemake_dag Pages: 1 -->
<svg width="81pt" height="193pt"
 viewBox="0.00 0.00 81.00 193.00" xmlns="http://www.w3.org/2000/svg" xmlns:xlink="http://www.w3.org/1999/xlink">
<g id="graph0" class="graph" transform="scale(1 1) rotate(0) translate(4 189)">
<title>snakemake_dag</title>
<polygon fill="white" stroke="transparent" points="-4,4 -4,-189 77,-189 77,4 -4,4"/>
<!-- 1 -->
<g id="node1" class="node">
<title>1</title>
<path fill="none" stroke="#d86e56" stroke-width="2" d="M61,-41C61,-41 12,-41 12,-41 6,-41 0,-35 0,-29 0,-29 0,-12 0,-12 0,-6 6,0 12,0 12,0 61,0 61,0 67,0 73,-6 73,-12 73,-12 73,-29 73,-29 73,-35 67,-41 61,-41"/>
<text text-anchor="middle" x="36.5" y="-29" font-family="sans" font-size="10.00">index_vcf</text>
<text text-anchor="middle" x="36.5" y="-18" font-family="sans" font-size="10.00">file: phased</text>
<text text-anchor="middle" x="36.5" y="-7" font-family="sans" font-size="10.00">path: out</text>
</g>
<!-- 2 -->
<g id="node2" class="node">
<title>2</title>
<path fill="none" stroke="#56d8a2" stroke-width="2" d="M51.5,-113C51.5,-113 21.5,-113 21.5,-113 15.5,-113 9.5,-107 9.5,-101 9.5,-101 9.5,-89 9.5,-89 9.5,-83 15.5,-77 21.5,-77 21.5,-77 51.5,-77 51.5,-77 57.5,-77 63.5,-83 63.5,-89 63.5,-89 63.5,-101 63.5,-101 63.5,-107 57.5,-113 51.5,-113"/>
<text text-anchor="middle" x="36.5" y="-92.5" font-family="sans" font-size="10.00">concat</text>
</g>
<!-- 2&#45;&gt;1 -->
<g id="edge1" class="edge">
<title>2&#45;&gt;1</title>
<path fill="none" stroke="grey" stroke-width="2" d="M36.5,-76.82C36.5,-69.2 36.5,-60 36.5,-51.32"/>
<polygon fill="grey" stroke="grey" stroke-width="2" points="40,-51.12 36.5,-41.12 33,-51.12 40,-51.12"/>
</g>
<!-- 3 -->
<g id="node3" class="node">
<title>3</title>
<path fill="none" stroke="#d8a456" stroke-width="2" d="M54,-185C54,-185 19,-185 19,-185 13,-185 7,-179 7,-173 7,-173 7,-161 7,-161 7,-155 13,-149 19,-149 19,-149 54,-149 54,-149 60,-149 66,-155 66,-161 66,-161 66,-173 66,-173 66,-179 60,-185 54,-185"/>
<text text-anchor="middle" x="36.5" y="-164.5" font-family="sans" font-size="10.00">fa_index</text>
</g>
<!-- 3&#45;&gt;2 -->
<g id="edge2" class="edge">
<title>3&#45;&gt;2</title>
<path fill="none" stroke="grey" stroke-width="2" d="M36.5,-148.7C36.5,-140.98 36.5,-131.71 36.5,-123.11"/>
<polygon fill="grey" stroke="grey" stroke-width="2" points="40,-123.1 36.5,-113.1 33,-123.1 40,-123.1"/>
</g>
</g>
</svg>
