<?xml version="1.0" encoding="UTF-8" standalone="no"?>
<!DOCTYPE svg PUBLIC "-//W3C//DTD SVG 1.1//EN"
 "http://www.w3.org/Graphics/SVG/1.1/DTD/svg11.dtd">
<!-- Generated by graphviz version 2.43.0 (0)
 -->
<!-- Title: snakemake_dag Pages: 1 -->
<svg width="818pt" height="1246pt"
 viewBox="0.00 0.00 817.50 1246.00" xmlns="http://www.w3.org/2000/svg" xmlns:xlink="http://www.w3.org/1999/xlink">
<g id="graph0" class="graph" transform="scale(1 1) rotate(0) translate(4 1242)">
<title>snakemake_dag</title>
<polygon fill="white" stroke="transparent" points="-4,4 -4,-1242 813.5,-1242 813.5,4 -4,4"/>
<!-- 0 -->
<g id="node1" class="node">
<title>0</title>
<path fill="none" stroke="#a7d856" stroke-width="2" d="M413.5,-36C413.5,-36 383.5,-36 383.5,-36 377.5,-36 371.5,-30 371.5,-24 371.5,-24 371.5,-12 371.5,-12 371.5,-6 377.5,0 383.5,0 383.5,0 413.5,0 413.5,0 419.5,0 425.5,-6 425.5,-12 425.5,-12 425.5,-24 425.5,-24 425.5,-30 419.5,-36 413.5,-36"/>
<text text-anchor="middle" x="398.5" y="-15.5" font-family="sans" font-size="10.00">target</text>
</g>
<!-- 1 -->
<g id="node2" class="node">
<title>1</title>
<path fill="none" stroke="#56d8d8" stroke-width="2" d="M423,-113C423,-113 374,-113 374,-113 368,-113 362,-107 362,-101 362,-101 362,-84 362,-84 362,-78 368,-72 374,-72 374,-72 423,-72 423,-72 429,-72 435,-78 435,-84 435,-84 435,-101 435,-101 435,-107 429,-113 423,-113"/>
<text text-anchor="middle" x="398.5" y="-101" font-family="sans" font-size="10.00">index_vcf</text>
<text text-anchor="middle" x="398.5" y="-90" font-family="sans" font-size="10.00">file: phased</text>
<text text-anchor="middle" x="398.5" y="-79" font-family="sans" font-size="10.00">path: out</text>
</g>
<!-- 1&#45;&gt;0 -->
<g id="edge1" class="edge">
<title>1&#45;&gt;0</title>
<path fill="none" stroke="grey" stroke-width="2" d="M398.5,-71.69C398.5,-63.91 398.5,-54.84 398.5,-46.45"/>
<polygon fill="grey" stroke="grey" stroke-width="2" points="402,-46.32 398.5,-36.32 395,-46.32 402,-46.32"/>
</g>
<!-- 2 -->
<g id="node3" class="node">
<title>2</title>
<path fill="none" stroke="#d86e56" stroke-width="2" d="M413.5,-185C413.5,-185 383.5,-185 383.5,-185 377.5,-185 371.5,-179 371.5,-173 371.5,-173 371.5,-161 371.5,-161 371.5,-155 377.5,-149 383.5,-149 383.5,-149 413.5,-149 413.5,-149 419.5,-149 425.5,-155 425.5,-161 425.5,-161 425.5,-173 425.5,-173 425.5,-179 419.5,-185 413.5,-185"/>
<text text-anchor="middle" x="398.5" y="-164.5" font-family="sans" font-size="10.00">concat</text>
</g>
<!-- 2&#45;&gt;1 -->
<g id="edge2" class="edge">
<title>2&#45;&gt;1</title>
<path fill="none" stroke="grey" stroke-width="2" d="M398.5,-148.82C398.5,-141.2 398.5,-132 398.5,-123.32"/>
<polygon fill="grey" stroke="grey" stroke-width="2" points="402,-123.12 398.5,-113.12 395,-123.12 402,-123.12"/>
</g>
<!-- 3 -->
<g id="node4" class="node">
<title>3</title>
<path fill="none" stroke="#56d8d8" stroke-width="2" d="M441.5,-262C441.5,-262 355.5,-262 355.5,-262 349.5,-262 343.5,-256 343.5,-250 343.5,-250 343.5,-233 343.5,-233 343.5,-227 349.5,-221 355.5,-221 355.5,-221 441.5,-221 441.5,-221 447.5,-221 453.5,-227 453.5,-233 453.5,-233 453.5,-250 453.5,-250 453.5,-256 447.5,-262 441.5,-262"/>
<text text-anchor="middle" x="398.5" y="-250" font-family="sans" font-size="10.00">index_vcf</text>
<text text-anchor="middle" x="398.5" y="-239" font-family="sans" font-size="10.00">file: NC_037640.1</text>
<text text-anchor="middle" x="398.5" y="-228" font-family="sans" font-size="10.00">path: out/whatshap</text>
</g>
<!-- 3&#45;&gt;2 -->
<g id="edge3" class="edge">
<title>3&#45;&gt;2</title>
<path fill="none" stroke="grey" stroke-width="2" d="M398.5,-220.69C398.5,-212.91 398.5,-203.84 398.5,-195.45"/>
<polygon fill="grey" stroke="grey" stroke-width="2" points="402,-195.32 398.5,-185.32 395,-195.32 402,-195.32"/>
</g>
<!-- 4 -->
<g id="node5" class="node">
<title>4</title>
<path fill="none" stroke="#56a2d8" stroke-width="2" d="M413.5,-334C413.5,-334 383.5,-334 383.5,-334 377.5,-334 371.5,-328 371.5,-322 371.5,-322 371.5,-310 371.5,-310 371.5,-304 377.5,-298 383.5,-298 383.5,-298 413.5,-298 413.5,-298 419.5,-298 425.5,-304 425.5,-310 425.5,-310 425.5,-322 425.5,-322 425.5,-328 419.5,-334 413.5,-334"/>
<text text-anchor="middle" x="398.5" y="-313.5" font-family="sans" font-size="10.00">phase</text>
</g>
<!-- 4&#45;&gt;3 -->
<g id="edge4" class="edge">
<title>4&#45;&gt;3</title>
<path fill="none" stroke="grey" stroke-width="2" d="M398.5,-297.82C398.5,-290.2 398.5,-281 398.5,-272.32"/>
<polygon fill="grey" stroke="grey" stroke-width="2" points="402,-272.12 398.5,-262.12 395,-272.12 402,-272.12"/>
</g>
<!-- 5 -->
<g id="node6" class="node">
<title>5</title>
<path fill="none" stroke="#56d8d8" stroke-width="2" d="M316.5,-488C316.5,-488 132.5,-488 132.5,-488 126.5,-488 120.5,-482 120.5,-476 120.5,-476 120.5,-459 120.5,-459 120.5,-453 126.5,-447 132.5,-447 132.5,-447 316.5,-447 316.5,-447 322.5,-447 328.5,-453 328.5,-459 328.5,-459 328.5,-476 328.5,-476 328.5,-482 322.5,-488 316.5,-488"/>
<text text-anchor="middle" x="224.5" y="-476" font-family="sans" font-size="10.00">index_vcf</text>
<text text-anchor="middle" x="224.5" y="-465" font-family="sans" font-size="10.00">file: NC_037640.1</text>
<text text-anchor="middle" x="224.5" y="-454" font-family="sans" font-size="10.00">path: out/processed_for_whatshap/pool</text>
</g>
<!-- 5&#45;&gt;4 -->
<g id="edge5" class="edge">
<title>5&#45;&gt;4</title>
<path fill="none" stroke="grey" stroke-width="2" d="M229.27,-446.97C235.45,-425.49 248.15,-391.21 270.5,-370 295.83,-345.96 333.59,-332.14 361.54,-324.68"/>
<polygon fill="grey" stroke="grey" stroke-width="2" points="362.51,-328.05 371.35,-322.22 360.8,-321.26 362.51,-328.05"/>
</g>
<!-- 6 -->
<g id="node7" class="node">
<title>6</title>
<path fill="none" stroke="#d85656" stroke-width="2" d="M253.5,-709C253.5,-709 195.5,-709 195.5,-709 189.5,-709 183.5,-703 183.5,-697 183.5,-697 183.5,-685 183.5,-685 183.5,-679 189.5,-673 195.5,-673 195.5,-673 253.5,-673 253.5,-673 259.5,-673 265.5,-679 265.5,-685 265.5,-685 265.5,-697 265.5,-697 265.5,-703 259.5,-709 253.5,-709"/>
<text text-anchor="middle" x="224.5" y="-688.5" font-family="sans" font-size="10.00">sort_pool_vcf</text>
</g>
<!-- 6&#45;&gt;5 -->
<g id="edge10" class="edge">
<title>6&#45;&gt;5</title>
<path fill="none" stroke="grey" stroke-width="2" d="M224.5,-672.99C224.5,-635.49 224.5,-545.33 224.5,-498.25"/>
<polygon fill="grey" stroke="grey" stroke-width="2" points="228,-498.08 224.5,-488.08 221,-498.08 228,-498.08"/>
</g>
<!-- 7 -->
<g id="node8" class="node">
<title>7</title>
<path fill="none" stroke="#56c1d8" stroke-width="2" d="M263.5,-783.5C263.5,-783.5 185.5,-783.5 185.5,-783.5 179.5,-783.5 173.5,-777.5 173.5,-771.5 173.5,-771.5 173.5,-759.5 173.5,-759.5 173.5,-753.5 179.5,-747.5 185.5,-747.5 185.5,-747.5 263.5,-747.5 263.5,-747.5 269.5,-747.5 275.5,-753.5 275.5,-759.5 275.5,-759.5 275.5,-771.5 275.5,-771.5 275.5,-777.5 269.5,-783.5 263.5,-783.5"/>
<text text-anchor="middle" x="224.5" y="-768.5" font-family="sans" font-size="10.00">merge_pool_vcf</text>
<text text-anchor="middle" x="224.5" y="-757.5" font-family="sans" font-size="10.00">chr: NC_037640.1</text>
</g>
<!-- 7&#45;&gt;6 -->
<g id="edge11" class="edge">
<title>7&#45;&gt;6</title>
<path fill="none" stroke="grey" stroke-width="2" d="M224.5,-747.32C224.5,-738.92 224.5,-728.62 224.5,-719.19"/>
<polygon fill="grey" stroke="grey" stroke-width="2" points="228,-719.06 224.5,-709.06 221,-719.06 228,-719.06"/>
</g>
<!-- 8 -->
<g id="node9" class="node">
<title>8</title>
<path fill="none" stroke="#56d8d8" stroke-width="2" d="M133,-863C133,-863 12,-863 12,-863 6,-863 0,-857 0,-851 0,-851 0,-834 0,-834 0,-828 6,-822 12,-822 12,-822 133,-822 133,-822 139,-822 145,-828 145,-834 145,-834 145,-851 145,-851 145,-857 139,-863 133,-863"/>
<text text-anchor="middle" x="72.5" y="-851" font-family="sans" font-size="10.00">index_vcf</text>
<text text-anchor="middle" x="72.5" y="-840" font-family="sans" font-size="10.00">file: NC_037640.1</text>
<text text-anchor="middle" x="72.5" y="-829" font-family="sans" font-size="10.00">path: out/indivs/pool/BB34</text>
</g>
<!-- 8&#45;&gt;7 -->
<g id="edge12" class="edge">
<title>8&#45;&gt;7</title>
<path fill="none" stroke="grey" stroke-width="2" d="M112.04,-821.99C133.13,-811.58 159.13,-798.76 180.81,-788.06"/>
<polygon fill="grey" stroke="grey" stroke-width="2" points="182.4,-791.18 189.81,-783.61 179.3,-784.9 182.4,-791.18"/>
</g>
<!-- 9 -->
<g id="node10" class="node">
<title>9</title>
<path fill="none" stroke="#5673d8" stroke-width="2" d="M123.5,-940C123.5,-940 45.5,-940 45.5,-940 39.5,-940 33.5,-934 33.5,-928 33.5,-928 33.5,-911 33.5,-911 33.5,-905 39.5,-899 45.5,-899 45.5,-899 123.5,-899 123.5,-899 129.5,-899 135.5,-905 135.5,-911 135.5,-911 135.5,-928 135.5,-928 135.5,-934 129.5,-940 123.5,-940"/>
<text text-anchor="middle" x="84.5" y="-928" font-family="sans" font-size="10.00">pool_vcf</text>
<text text-anchor="middle" x="84.5" y="-917" font-family="sans" font-size="10.00">chr: NC_037640.1</text>
<text text-anchor="middle" x="84.5" y="-906" font-family="sans" font-size="10.00">indiv: BB34</text>
</g>
<!-- 9&#45;&gt;8 -->
<g id="edge14" class="edge">
<title>9&#45;&gt;8</title>
<path fill="none" stroke="grey" stroke-width="2" d="M81.35,-898.79C80.09,-890.96 78.62,-881.77 77.25,-873.16"/>
<polygon fill="grey" stroke="grey" stroke-width="2" points="80.67,-872.4 75.63,-863.07 73.76,-873.5 80.67,-872.4"/>
</g>
<!-- 10 -->
<g id="node11" class="node">
<title>10</title>
<path fill="none" stroke="#56d8d8" stroke-width="2" d="M252,-1017C252,-1017 169,-1017 169,-1017 163,-1017 157,-1011 157,-1005 157,-1005 157,-988 157,-988 157,-982 163,-976 169,-976 169,-976 252,-976 252,-976 258,-976 264,-982 264,-988 264,-988 264,-1005 264,-1005 264,-1011 258,-1017 252,-1017"/>
<text text-anchor="middle" x="210.5" y="-1005" font-family="sans" font-size="10.00">index_vcf</text>
<text text-anchor="middle" x="210.5" y="-994" font-family="sans" font-size="10.00">file: pool</text>
<text text-anchor="middle" x="210.5" y="-983" font-family="sans" font-size="10.00">path: out/renamed</text>
</g>
<!-- 10&#45;&gt;9 -->
<g id="edge15" class="edge">
<title>10&#45;&gt;9</title>
<path fill="none" stroke="grey" stroke-width="2" d="M177.72,-975.99C162.1,-966.69 143.22,-955.45 126.55,-945.53"/>
<polygon fill="grey" stroke="grey" stroke-width="2" points="127.93,-942.28 117.55,-940.17 124.35,-948.29 127.93,-942.28"/>
</g>
<!-- 16 -->
<g id="node17" class="node">
<title>16</title>
<path fill="none" stroke="#5673d8" stroke-width="2" d="M254.5,-940C254.5,-940 176.5,-940 176.5,-940 170.5,-940 164.5,-934 164.5,-928 164.5,-928 164.5,-911 164.5,-911 164.5,-905 170.5,-899 176.5,-899 176.5,-899 254.5,-899 254.5,-899 260.5,-899 266.5,-905 266.5,-911 266.5,-911 266.5,-928 266.5,-928 266.5,-934 260.5,-940 254.5,-940"/>
<text text-anchor="middle" x="215.5" y="-928" font-family="sans" font-size="10.00">pool_vcf</text>
<text text-anchor="middle" x="215.5" y="-917" font-family="sans" font-size="10.00">chr: NC_037640.1</text>
<text text-anchor="middle" x="215.5" y="-906" font-family="sans" font-size="10.00">indiv: BB42</text>
</g>
<!-- 10&#45;&gt;16 -->
<g id="edge21" class="edge">
<title>10&#45;&gt;16</title>
<path fill="none" stroke="grey" stroke-width="2" d="M211.81,-975.79C212.34,-967.96 212.95,-958.77 213.52,-950.16"/>
<polygon fill="grey" stroke="grey" stroke-width="2" points="217.02,-950.28 214.2,-940.07 210.04,-949.82 217.02,-950.28"/>
</g>
<!-- 11 -->
<g id="node12" class="node">
<title>11</title>
<path fill="none" stroke="#88d856" stroke-width="2" d="M238.5,-1089C238.5,-1089 182.5,-1089 182.5,-1089 176.5,-1089 170.5,-1083 170.5,-1077 170.5,-1077 170.5,-1065 170.5,-1065 170.5,-1059 176.5,-1053 182.5,-1053 182.5,-1053 238.5,-1053 238.5,-1053 244.5,-1053 250.5,-1059 250.5,-1065 250.5,-1065 250.5,-1077 250.5,-1077 250.5,-1083 244.5,-1089 238.5,-1089"/>
<text text-anchor="middle" x="210.5" y="-1074" font-family="sans" font-size="10.00">reheader_vcf</text>
<text text-anchor="middle" x="210.5" y="-1063" font-family="sans" font-size="10.00">set: pool</text>
</g>
<!-- 11&#45;&gt;10 -->
<g id="edge16" class="edge">
<title>11&#45;&gt;10</title>
<path fill="none" stroke="grey" stroke-width="2" d="M210.5,-1052.82C210.5,-1045.2 210.5,-1036 210.5,-1027.32"/>
<polygon fill="grey" stroke="grey" stroke-width="2" points="214,-1027.12 210.5,-1017.12 207,-1027.12 214,-1027.12"/>
</g>
<!-- 12 -->
<g id="node13" class="node">
<title>12</title>
<path fill="none" stroke="#56d8d8" stroke-width="2" d="M230.5,-1166C230.5,-1166 170.5,-1166 170.5,-1166 164.5,-1166 158.5,-1160 158.5,-1154 158.5,-1154 158.5,-1137 158.5,-1137 158.5,-1131 164.5,-1125 170.5,-1125 170.5,-1125 230.5,-1125 230.5,-1125 236.5,-1125 242.5,-1131 242.5,-1137 242.5,-1137 242.5,-1154 242.5,-1154 242.5,-1160 236.5,-1166 230.5,-1166"/>
<text text-anchor="middle" x="200.5" y="-1154" font-family="sans" font-size="10.00">index_vcf</text>
<text text-anchor="middle" x="200.5" y="-1143" font-family="sans" font-size="10.00">file: pool</text>
<text text-anchor="middle" x="200.5" y="-1132" font-family="sans" font-size="10.00">path: out/split</text>
</g>
<!-- 12&#45;&gt;11 -->
<g id="edge17" class="edge">
<title>12&#45;&gt;11</title>
<path fill="none" stroke="grey" stroke-width="2" d="M203.23,-1124.69C204.31,-1116.91 205.56,-1107.84 206.71,-1099.45"/>
<polygon fill="grey" stroke="grey" stroke-width="2" points="210.21,-1099.7 208.11,-1089.32 203.28,-1098.75 210.21,-1099.7"/>
</g>
<!-- 13 -->
<g id="node14" class="node">
<title>13</title>
<path fill="none" stroke="#56d873" stroke-width="2" d="M218,-1238C218,-1238 183,-1238 183,-1238 177,-1238 171,-1232 171,-1226 171,-1226 171,-1214 171,-1214 171,-1208 177,-1202 183,-1202 183,-1202 218,-1202 218,-1202 224,-1202 230,-1208 230,-1214 230,-1214 230,-1226 230,-1226 230,-1232 224,-1238 218,-1238"/>
<text text-anchor="middle" x="200.5" y="-1223" font-family="sans" font-size="10.00">split_vcf</text>
<text text-anchor="middle" x="200.5" y="-1212" font-family="sans" font-size="10.00">set: pool</text>
</g>
<!-- 13&#45;&gt;12 -->
<g id="edge19" class="edge">
<title>13&#45;&gt;12</title>
<path fill="none" stroke="grey" stroke-width="2" d="M200.5,-1201.82C200.5,-1194.2 200.5,-1185 200.5,-1176.32"/>
<polygon fill="grey" stroke="grey" stroke-width="2" points="204,-1176.12 200.5,-1166.12 197,-1176.12 204,-1176.12"/>
</g>
<!-- 14 -->
<g id="node15" class="node">
<title>14</title>
<path fill="none" stroke="#56d8a2" stroke-width="2" d="M320,-1163.5C320,-1163.5 273,-1163.5 273,-1163.5 267,-1163.5 261,-1157.5 261,-1151.5 261,-1151.5 261,-1139.5 261,-1139.5 261,-1133.5 267,-1127.5 273,-1127.5 273,-1127.5 320,-1127.5 320,-1127.5 326,-1127.5 332,-1133.5 332,-1139.5 332,-1139.5 332,-1151.5 332,-1151.5 332,-1157.5 326,-1163.5 320,-1163.5"/>
<text text-anchor="middle" x="296.5" y="-1143" font-family="sans" font-size="10.00">header_file</text>
</g>
<!-- 14&#45;&gt;11 -->
<g id="edge18" class="edge">
<title>14&#45;&gt;11</title>
<path fill="none" stroke="grey" stroke-width="2" d="M276.12,-1127.32C264.87,-1117.84 250.74,-1105.93 238.48,-1095.58"/>
<polygon fill="grey" stroke="grey" stroke-width="2" points="240.64,-1092.83 230.73,-1089.06 236.12,-1098.18 240.64,-1092.83"/>
</g>
<!-- 31 -->
<g id="node32" class="node">
<title>31</title>
<path fill="none" stroke="#88d856" stroke-width="2" d="M419.5,-1089C419.5,-1089 363.5,-1089 363.5,-1089 357.5,-1089 351.5,-1083 351.5,-1077 351.5,-1077 351.5,-1065 351.5,-1065 351.5,-1059 357.5,-1053 363.5,-1053 363.5,-1053 419.5,-1053 419.5,-1053 425.5,-1053 431.5,-1059 431.5,-1065 431.5,-1065 431.5,-1077 431.5,-1077 431.5,-1083 425.5,-1089 419.5,-1089"/>
<text text-anchor="middle" x="391.5" y="-1074" font-family="sans" font-size="10.00">reheader_vcf</text>
<text text-anchor="middle" x="391.5" y="-1063" font-family="sans" font-size="10.00">set: drone</text>
</g>
<!-- 14&#45;&gt;31 -->
<g id="edge37" class="edge">
<title>14&#45;&gt;31</title>
<path fill="none" stroke="grey" stroke-width="2" d="M319.01,-1127.32C331.55,-1117.75 347.34,-1105.7 360.98,-1095.29"/>
<polygon fill="grey" stroke="grey" stroke-width="2" points="363.32,-1097.91 369.15,-1089.06 359.08,-1092.34 363.32,-1097.91"/>
</g>
<!-- 15 -->
<g id="node16" class="node">
<title>15</title>
<path fill="none" stroke="#56d8d8" stroke-width="2" d="M296,-863C296,-863 175,-863 175,-863 169,-863 163,-857 163,-851 163,-851 163,-834 163,-834 163,-828 169,-822 175,-822 175,-822 296,-822 296,-822 302,-822 308,-828 308,-834 308,-834 308,-851 308,-851 308,-857 302,-863 296,-863"/>
<text text-anchor="middle" x="235.5" y="-851" font-family="sans" font-size="10.00">index_vcf</text>
<text text-anchor="middle" x="235.5" y="-840" font-family="sans" font-size="10.00">file: NC_037640.1</text>
<text text-anchor="middle" x="235.5" y="-829" font-family="sans" font-size="10.00">path: out/indivs/pool/BB42</text>
</g>
<!-- 15&#45;&gt;7 -->
<g id="edge13" class="edge">
<title>15&#45;&gt;7</title>
<path fill="none" stroke="grey" stroke-width="2" d="M232.61,-821.79C231.35,-813.22 229.86,-803.02 228.5,-793.74"/>
<polygon fill="grey" stroke="grey" stroke-width="2" points="231.95,-793.16 227.03,-783.78 225.02,-794.18 231.95,-793.16"/>
</g>
<!-- 16&#45;&gt;15 -->
<g id="edge20" class="edge">
<title>16&#45;&gt;15</title>
<path fill="none" stroke="grey" stroke-width="2" d="M220.75,-898.79C222.87,-890.87 225.35,-881.57 227.67,-872.88"/>
<polygon fill="grey" stroke="grey" stroke-width="2" points="231.09,-873.64 230.28,-863.07 224.32,-871.83 231.09,-873.64"/>
</g>
<!-- 17 -->
<g id="node18" class="node">
<title>17</title>
<path fill="none" stroke="#568ad8" stroke-width="2" d="M682,-485.5C682,-485.5 631,-485.5 631,-485.5 625,-485.5 619,-479.5 619,-473.5 619,-473.5 619,-461.5 619,-461.5 619,-455.5 625,-449.5 631,-449.5 631,-449.5 682,-449.5 682,-449.5 688,-449.5 694,-455.5 694,-461.5 694,-461.5 694,-473.5 694,-473.5 694,-479.5 688,-485.5 682,-485.5"/>
<text text-anchor="middle" x="656.5" y="-470.5" font-family="sans" font-size="10.00">merge_bam</text>
<text text-anchor="middle" x="656.5" y="-459.5" font-family="sans" font-size="10.00">type: pool</text>
</g>
<!-- 17&#45;&gt;4 -->
<g id="edge6" class="edge">
<title>17&#45;&gt;4</title>
<path fill="none" stroke="grey" stroke-width="2" d="M618.55,-449.64C598.31,-439.79 573.52,-426.29 553.5,-411 533.51,-395.73 534.98,-384.6 514.5,-370 490.1,-352.6 459.07,-338.78 435.25,-329.63"/>
<polygon fill="grey" stroke="grey" stroke-width="2" points="436.44,-326.33 425.85,-326.11 433.99,-332.89 436.44,-326.33"/>
</g>
<!-- 22 -->
<g id="node23" class="node">
<title>22</title>
<path fill="none" stroke="#70d856" stroke-width="2" d="M758.5,-411C758.5,-411 574.5,-411 574.5,-411 568.5,-411 562.5,-405 562.5,-399 562.5,-399 562.5,-382 562.5,-382 562.5,-376 568.5,-370 574.5,-370 574.5,-370 758.5,-370 758.5,-370 764.5,-370 770.5,-376 770.5,-382 770.5,-382 770.5,-399 770.5,-399 770.5,-405 764.5,-411 758.5,-411"/>
<text text-anchor="middle" x="666.5" y="-399" font-family="sans" font-size="10.00">index_bamfile</text>
<text text-anchor="middle" x="666.5" y="-388" font-family="sans" font-size="10.00">file: NC_037640.1</text>
<text text-anchor="middle" x="666.5" y="-377" font-family="sans" font-size="10.00">path: out/processed_for_whatshap/pool</text>
</g>
<!-- 17&#45;&gt;22 -->
<g id="edge26" class="edge">
<title>17&#45;&gt;22</title>
<path fill="none" stroke="grey" stroke-width="2" d="M658.77,-449.48C659.89,-441.1 661.27,-430.76 662.55,-421.13"/>
<polygon fill="grey" stroke="grey" stroke-width="2" points="666.03,-421.48 663.89,-411.1 659.1,-420.55 666.03,-421.48"/>
</g>
<!-- 18 -->
<g id="node19" class="node">
<title>18</title>
<path fill="none" stroke="#d6d856" stroke-width="2" d="M675,-560C675,-560 618,-560 618,-560 612,-560 606,-554 606,-548 606,-548 606,-536 606,-536 606,-530 612,-524 618,-524 618,-524 675,-524 675,-524 681,-524 687,-530 687,-536 687,-536 687,-548 687,-548 687,-554 681,-560 675,-560"/>
<text text-anchor="middle" x="646.5" y="-539.5" font-family="sans" font-size="10.00">rename_bam</text>
</g>
<!-- 18&#45;&gt;17 -->
<g id="edge22" class="edge">
<title>18&#45;&gt;17</title>
<path fill="none" stroke="grey" stroke-width="2" d="M648.87,-523.82C650.03,-515.42 651.45,-505.12 652.75,-495.69"/>
<polygon fill="grey" stroke="grey" stroke-width="2" points="656.25,-495.94 654.15,-485.56 649.31,-494.99 656.25,-495.94"/>
</g>
<!-- 19 -->
<g id="node20" class="node">
<title>19</title>
<path fill="none" stroke="#56d88a" stroke-width="2" d="M675.5,-637C675.5,-637 595.5,-637 595.5,-637 589.5,-637 583.5,-631 583.5,-625 583.5,-625 583.5,-608 583.5,-608 583.5,-602 589.5,-596 595.5,-596 595.5,-596 675.5,-596 675.5,-596 681.5,-596 687.5,-602 687.5,-608 687.5,-608 687.5,-625 687.5,-625 687.5,-631 681.5,-637 675.5,-637"/>
<text text-anchor="middle" x="635.5" y="-625" font-family="sans" font-size="10.00">extract_pool_bam</text>
<text text-anchor="middle" x="635.5" y="-614" font-family="sans" font-size="10.00">chr: NC_037640.1</text>
<text text-anchor="middle" x="635.5" y="-603" font-family="sans" font-size="10.00">indiv: BB34</text>
</g>
<!-- 19&#45;&gt;18 -->
<g id="edge24" class="edge">
<title>19&#45;&gt;18</title>
<path fill="none" stroke="grey" stroke-width="2" d="M638.51,-595.69C639.69,-587.91 641.06,-578.84 642.34,-570.45"/>
<polygon fill="grey" stroke="grey" stroke-width="2" points="645.83,-570.73 643.87,-560.32 638.91,-569.68 645.83,-570.73"/>
</g>
<!-- 20 -->
<g id="node21" class="node">
<title>20</title>
<path fill="none" stroke="#d6d856" stroke-width="2" d="M780,-560C780,-560 723,-560 723,-560 717,-560 711,-554 711,-548 711,-548 711,-536 711,-536 711,-530 717,-524 723,-524 723,-524 780,-524 780,-524 786,-524 792,-530 792,-536 792,-536 792,-548 792,-548 792,-554 786,-560 780,-560"/>
<text text-anchor="middle" x="751.5" y="-539.5" font-family="sans" font-size="10.00">rename_bam</text>
</g>
<!-- 20&#45;&gt;17 -->
<g id="edge23" class="edge">
<title>20&#45;&gt;17</title>
<path fill="none" stroke="grey" stroke-width="2" d="M728.99,-523.82C716.45,-514.25 700.66,-502.2 687.02,-491.79"/>
<polygon fill="grey" stroke="grey" stroke-width="2" points="688.92,-488.84 678.85,-485.56 684.68,-494.41 688.92,-488.84"/>
</g>
<!-- 21 -->
<g id="node22" class="node">
<title>21</title>
<path fill="none" stroke="#56d88a" stroke-width="2" d="M797.5,-637C797.5,-637 717.5,-637 717.5,-637 711.5,-637 705.5,-631 705.5,-625 705.5,-625 705.5,-608 705.5,-608 705.5,-602 711.5,-596 717.5,-596 717.5,-596 797.5,-596 797.5,-596 803.5,-596 809.5,-602 809.5,-608 809.5,-608 809.5,-625 809.5,-625 809.5,-631 803.5,-637 797.5,-637"/>
<text text-anchor="middle" x="757.5" y="-625" font-family="sans" font-size="10.00">extract_pool_bam</text>
<text text-anchor="middle" x="757.5" y="-614" font-family="sans" font-size="10.00">chr: NC_037640.1</text>
<text text-anchor="middle" x="757.5" y="-603" font-family="sans" font-size="10.00">indiv: BB42</text>
</g>
<!-- 21&#45;&gt;20 -->
<g id="edge25" class="edge">
<title>21&#45;&gt;20</title>
<path fill="none" stroke="grey" stroke-width="2" d="M755.86,-595.69C755.22,-587.91 754.47,-578.84 753.77,-570.45"/>
<polygon fill="grey" stroke="grey" stroke-width="2" points="757.25,-570 752.93,-560.32 750.27,-570.57 757.25,-570"/>
</g>
<!-- 22&#45;&gt;4 -->
<g id="edge7" class="edge">
<title>22&#45;&gt;4</title>
<path fill="none" stroke="grey" stroke-width="2" d="M594.33,-369.98C543.02,-356.1 476.22,-338.03 435.39,-326.98"/>
<polygon fill="grey" stroke="grey" stroke-width="2" points="436.17,-323.56 425.6,-324.33 434.34,-330.32 436.17,-323.56"/>
</g>
<!-- 23 -->
<g id="node24" class="node">
<title>23</title>
<path fill="none" stroke="#568ad8" stroke-width="2" d="M422,-485.5C422,-485.5 371,-485.5 371,-485.5 365,-485.5 359,-479.5 359,-473.5 359,-473.5 359,-461.5 359,-461.5 359,-455.5 365,-449.5 371,-449.5 371,-449.5 422,-449.5 422,-449.5 428,-449.5 434,-455.5 434,-461.5 434,-461.5 434,-473.5 434,-473.5 434,-479.5 428,-485.5 422,-485.5"/>
<text text-anchor="middle" x="396.5" y="-470.5" font-family="sans" font-size="10.00">merge_bam</text>
<text text-anchor="middle" x="396.5" y="-459.5" font-family="sans" font-size="10.00">type: drone</text>
</g>
<!-- 23&#45;&gt;4 -->
<g id="edge8" class="edge">
<title>23&#45;&gt;4</title>
<path fill="none" stroke="grey" stroke-width="2" d="M358.82,-453.3C328.81,-441.94 290.4,-425.18 281.5,-411 271.81,-395.57 271.62,-385.31 281.5,-370 299.02,-342.83 334.22,-329.44 361.46,-322.93"/>
<polygon fill="grey" stroke="grey" stroke-width="2" points="362.42,-326.3 371.45,-320.76 360.94,-319.46 362.42,-326.3"/>
</g>
<!-- 40 -->
<g id="node41" class="node">
<title>40</title>
<path fill="none" stroke="#70d856" stroke-width="2" d="M494,-411C494,-411 303,-411 303,-411 297,-411 291,-405 291,-399 291,-399 291,-382 291,-382 291,-376 297,-370 303,-370 303,-370 494,-370 494,-370 500,-370 506,-376 506,-382 506,-382 506,-399 506,-399 506,-405 500,-411 494,-411"/>
<text text-anchor="middle" x="398.5" y="-399" font-family="sans" font-size="10.00">index_bamfile</text>
<text text-anchor="middle" x="398.5" y="-388" font-family="sans" font-size="10.00">file: NC_037640.1</text>
<text text-anchor="middle" x="398.5" y="-377" font-family="sans" font-size="10.00">path: out/processed_for_whatshap/drone</text>
</g>
<!-- 23&#45;&gt;40 -->
<g id="edge45" class="edge">
<title>23&#45;&gt;40</title>
<path fill="none" stroke="grey" stroke-width="2" d="M396.95,-449.48C397.18,-441.1 397.45,-430.76 397.71,-421.13"/>
<polygon fill="grey" stroke="grey" stroke-width="2" points="401.21,-421.19 397.98,-411.1 394.21,-421 401.21,-421.19"/>
</g>
<!-- 24 -->
<g id="node25" class="node">
<title>24</title>
<path fill="none" stroke="#bed856" stroke-width="2" d="M423.5,-560C423.5,-560 367.5,-560 367.5,-560 361.5,-560 355.5,-554 355.5,-548 355.5,-548 355.5,-536 355.5,-536 355.5,-530 361.5,-524 367.5,-524 367.5,-524 423.5,-524 423.5,-524 429.5,-524 435.5,-530 435.5,-536 435.5,-536 435.5,-548 435.5,-548 435.5,-554 429.5,-560 423.5,-560"/>
<text text-anchor="middle" x="395.5" y="-539.5" font-family="sans" font-size="10.00">sam_to_bam</text>
</g>
<!-- 24&#45;&gt;23 -->
<g id="edge27" class="edge">
<title>24&#45;&gt;23</title>
<path fill="none" stroke="grey" stroke-width="2" d="M395.74,-523.82C395.85,-515.42 395.99,-505.12 396.13,-495.69"/>
<polygon fill="grey" stroke="grey" stroke-width="2" points="399.63,-495.61 396.26,-485.56 392.63,-495.51 399.63,-495.61"/>
</g>
<!-- 25 -->
<g id="node26" class="node">
<title>25</title>
<path fill="none" stroke="#59d856" stroke-width="2" d="M412,-634.5C412,-634.5 371,-634.5 371,-634.5 365,-634.5 359,-628.5 359,-622.5 359,-622.5 359,-610.5 359,-610.5 359,-604.5 365,-598.5 371,-598.5 371,-598.5 412,-598.5 412,-598.5 418,-598.5 424,-604.5 424,-610.5 424,-610.5 424,-622.5 424,-622.5 424,-628.5 418,-634.5 412,-634.5"/>
<text text-anchor="middle" x="391.5" y="-614" font-family="sans" font-size="10.00">map_read</text>
</g>
<!-- 25&#45;&gt;24 -->
<g id="edge29" class="edge">
<title>25&#45;&gt;24</title>
<path fill="none" stroke="grey" stroke-width="2" d="M392.45,-598.32C392.91,-589.92 393.48,-579.62 394,-570.19"/>
<polygon fill="grey" stroke="grey" stroke-width="2" points="397.5,-570.24 394.56,-560.06 390.51,-569.85 397.5,-570.24"/>
</g>
<!-- 26 -->
<g id="node27" class="node">
<title>26</title>
<path fill="none" stroke="#56d8c1" stroke-width="2" d="M420,-709C420,-709 363,-709 363,-709 357,-709 351,-703 351,-697 351,-697 351,-685 351,-685 351,-679 357,-673 363,-673 363,-673 420,-673 420,-673 426,-673 432,-679 432,-685 432,-685 432,-697 432,-697 432,-703 426,-709 420,-709"/>
<text text-anchor="middle" x="391.5" y="-688.5" font-family="sans" font-size="10.00">rename_read</text>
</g>
<!-- 26&#45;&gt;25 -->
<g id="edge30" class="edge">
<title>26&#45;&gt;25</title>
<path fill="none" stroke="grey" stroke-width="2" d="M391.5,-672.82C391.5,-664.42 391.5,-654.12 391.5,-644.69"/>
<polygon fill="grey" stroke="grey" stroke-width="2" points="395,-644.56 391.5,-634.56 388,-644.56 395,-644.56"/>
</g>
<!-- 27 -->
<g id="node28" class="node">
<title>27</title>
<path fill="none" stroke="#d88d56" stroke-width="2" d="M429.5,-786C429.5,-786 351.5,-786 351.5,-786 345.5,-786 339.5,-780 339.5,-774 339.5,-774 339.5,-757 339.5,-757 339.5,-751 345.5,-745 351.5,-745 351.5,-745 429.5,-745 429.5,-745 435.5,-745 441.5,-751 441.5,-757 441.5,-757 441.5,-774 441.5,-774 441.5,-780 435.5,-786 429.5,-786"/>
<text text-anchor="middle" x="390.5" y="-774" font-family="sans" font-size="10.00">consensus</text>
<text text-anchor="middle" x="390.5" y="-763" font-family="sans" font-size="10.00">chr: NC_037640.1</text>
<text text-anchor="middle" x="390.5" y="-752" font-family="sans" font-size="10.00">indiv: BB34</text>
</g>
<!-- 27&#45;&gt;26 -->
<g id="edge31" class="edge">
<title>27&#45;&gt;26</title>
<path fill="none" stroke="grey" stroke-width="2" d="M390.77,-744.69C390.88,-736.91 391.01,-727.84 391.12,-719.45"/>
<polygon fill="grey" stroke="grey" stroke-width="2" points="394.62,-719.37 391.26,-709.32 387.62,-719.27 394.62,-719.37"/>
</g>
<!-- 28 -->
<g id="node29" class="node">
<title>28</title>
<path fill="none" stroke="#56d8d8" stroke-width="2" d="M439,-863C439,-863 340,-863 340,-863 334,-863 328,-857 328,-851 328,-851 328,-834 328,-834 328,-828 334,-822 340,-822 340,-822 439,-822 439,-822 445,-822 451,-828 451,-834 451,-834 451,-851 451,-851 451,-857 445,-863 439,-863"/>
<text text-anchor="middle" x="389.5" y="-851" font-family="sans" font-size="10.00">index_vcf</text>
<text text-anchor="middle" x="389.5" y="-840" font-family="sans" font-size="10.00">file: BB34</text>
<text text-anchor="middle" x="389.5" y="-829" font-family="sans" font-size="10.00">path: out/indivs/drone</text>
</g>
<!-- 28&#45;&gt;27 -->
<g id="edge32" class="edge">
<title>28&#45;&gt;27</title>
<path fill="none" stroke="grey" stroke-width="2" d="M389.76,-821.79C389.87,-813.96 389.99,-804.77 390.1,-796.16"/>
<polygon fill="grey" stroke="grey" stroke-width="2" points="393.61,-796.12 390.24,-786.07 386.61,-796.03 393.61,-796.12"/>
</g>
<!-- 29 -->
<g id="node30" class="node">
<title>29</title>
<path fill="none" stroke="#d8a456" stroke-width="2" d="M414,-937.5C414,-937.5 367,-937.5 367,-937.5 361,-937.5 355,-931.5 355,-925.5 355,-925.5 355,-913.5 355,-913.5 355,-907.5 361,-901.5 367,-901.5 367,-901.5 414,-901.5 414,-901.5 420,-901.5 426,-907.5 426,-913.5 426,-913.5 426,-925.5 426,-925.5 426,-931.5 420,-937.5 414,-937.5"/>
<text text-anchor="middle" x="390.5" y="-922.5" font-family="sans" font-size="10.00">indiv_vcf</text>
<text text-anchor="middle" x="390.5" y="-911.5" font-family="sans" font-size="10.00">indiv: BB34</text>
</g>
<!-- 29&#45;&gt;28 -->
<g id="edge33" class="edge">
<title>29&#45;&gt;28</title>
<path fill="none" stroke="grey" stroke-width="2" d="M390.27,-901.48C390.16,-893.1 390.02,-882.76 389.9,-873.13"/>
<polygon fill="grey" stroke="grey" stroke-width="2" points="393.39,-873.05 389.76,-863.1 386.4,-873.15 393.39,-873.05"/>
</g>
<!-- 30 -->
<g id="node31" class="node">
<title>30</title>
<path fill="none" stroke="#56d8d8" stroke-width="2" d="M433,-1017C433,-1017 350,-1017 350,-1017 344,-1017 338,-1011 338,-1005 338,-1005 338,-988 338,-988 338,-982 344,-976 350,-976 350,-976 433,-976 433,-976 439,-976 445,-982 445,-988 445,-988 445,-1005 445,-1005 445,-1011 439,-1017 433,-1017"/>
<text text-anchor="middle" x="391.5" y="-1005" font-family="sans" font-size="10.00">index_vcf</text>
<text text-anchor="middle" x="391.5" y="-994" font-family="sans" font-size="10.00">file: drone</text>
<text text-anchor="middle" x="391.5" y="-983" font-family="sans" font-size="10.00">path: out/renamed</text>
</g>
<!-- 30&#45;&gt;29 -->
<g id="edge34" class="edge">
<title>30&#45;&gt;29</title>
<path fill="none" stroke="grey" stroke-width="2" d="M391.24,-975.79C391.12,-967.31 390.99,-957.24 390.87,-948.04"/>
<polygon fill="grey" stroke="grey" stroke-width="2" points="394.36,-947.73 390.73,-937.78 387.36,-947.82 394.36,-947.73"/>
</g>
<!-- 39 -->
<g id="node40" class="node">
<title>39</title>
<path fill="none" stroke="#d8a456" stroke-width="2" d="M529,-937.5C529,-937.5 482,-937.5 482,-937.5 476,-937.5 470,-931.5 470,-925.5 470,-925.5 470,-913.5 470,-913.5 470,-907.5 476,-901.5 482,-901.5 482,-901.5 529,-901.5 529,-901.5 535,-901.5 541,-907.5 541,-913.5 541,-913.5 541,-925.5 541,-925.5 541,-931.5 535,-937.5 529,-937.5"/>
<text text-anchor="middle" x="505.5" y="-922.5" font-family="sans" font-size="10.00">indiv_vcf</text>
<text text-anchor="middle" x="505.5" y="-911.5" font-family="sans" font-size="10.00">indiv: BB42</text>
</g>
<!-- 30&#45;&gt;39 -->
<g id="edge44" class="edge">
<title>30&#45;&gt;39</title>
<path fill="none" stroke="grey" stroke-width="2" d="M421.15,-975.99C436.41,-965.96 455.08,-953.67 470.98,-943.21"/>
<polygon fill="grey" stroke="grey" stroke-width="2" points="473.06,-946.03 479.49,-937.61 469.21,-940.19 473.06,-946.03"/>
</g>
<!-- 31&#45;&gt;30 -->
<g id="edge35" class="edge">
<title>31&#45;&gt;30</title>
<path fill="none" stroke="grey" stroke-width="2" d="M391.5,-1052.82C391.5,-1045.2 391.5,-1036 391.5,-1027.32"/>
<polygon fill="grey" stroke="grey" stroke-width="2" points="395,-1027.12 391.5,-1017.12 388,-1027.12 395,-1027.12"/>
</g>
<!-- 32 -->
<g id="node33" class="node">
<title>32</title>
<path fill="none" stroke="#56d8d8" stroke-width="2" d="M422.5,-1166C422.5,-1166 362.5,-1166 362.5,-1166 356.5,-1166 350.5,-1160 350.5,-1154 350.5,-1154 350.5,-1137 350.5,-1137 350.5,-1131 356.5,-1125 362.5,-1125 362.5,-1125 422.5,-1125 422.5,-1125 428.5,-1125 434.5,-1131 434.5,-1137 434.5,-1137 434.5,-1154 434.5,-1154 434.5,-1160 428.5,-1166 422.5,-1166"/>
<text text-anchor="middle" x="392.5" y="-1154" font-family="sans" font-size="10.00">index_vcf</text>
<text text-anchor="middle" x="392.5" y="-1143" font-family="sans" font-size="10.00">file: drone</text>
<text text-anchor="middle" x="392.5" y="-1132" font-family="sans" font-size="10.00">path: out/split</text>
</g>
<!-- 32&#45;&gt;31 -->
<g id="edge36" class="edge">
<title>32&#45;&gt;31</title>
<path fill="none" stroke="grey" stroke-width="2" d="M392.23,-1124.69C392.12,-1116.91 391.99,-1107.84 391.88,-1099.45"/>
<polygon fill="grey" stroke="grey" stroke-width="2" points="395.38,-1099.27 391.74,-1089.32 388.38,-1099.37 395.38,-1099.27"/>
</g>
<!-- 33 -->
<g id="node34" class="node">
<title>33</title>
<path fill="none" stroke="#56d873" stroke-width="2" d="M413,-1238C413,-1238 372,-1238 372,-1238 366,-1238 360,-1232 360,-1226 360,-1226 360,-1214 360,-1214 360,-1208 366,-1202 372,-1202 372,-1202 413,-1202 413,-1202 419,-1202 425,-1208 425,-1214 425,-1214 425,-1226 425,-1226 425,-1232 419,-1238 413,-1238"/>
<text text-anchor="middle" x="392.5" y="-1223" font-family="sans" font-size="10.00">split_vcf</text>
<text text-anchor="middle" x="392.5" y="-1212" font-family="sans" font-size="10.00">set: drone</text>
</g>
<!-- 33&#45;&gt;32 -->
<g id="edge38" class="edge">
<title>33&#45;&gt;32</title>
<path fill="none" stroke="grey" stroke-width="2" d="M392.5,-1201.82C392.5,-1194.2 392.5,-1185 392.5,-1176.32"/>
<polygon fill="grey" stroke="grey" stroke-width="2" points="396,-1176.12 392.5,-1166.12 389,-1176.12 396,-1176.12"/>
</g>
<!-- 34 -->
<g id="node35" class="node">
<title>34</title>
<path fill="none" stroke="#bed856" stroke-width="2" d="M527.5,-560C527.5,-560 471.5,-560 471.5,-560 465.5,-560 459.5,-554 459.5,-548 459.5,-548 459.5,-536 459.5,-536 459.5,-530 465.5,-524 471.5,-524 471.5,-524 527.5,-524 527.5,-524 533.5,-524 539.5,-530 539.5,-536 539.5,-536 539.5,-548 539.5,-548 539.5,-554 533.5,-560 527.5,-560"/>
<text text-anchor="middle" x="499.5" y="-539.5" font-family="sans" font-size="10.00">sam_to_bam</text>
</g>
<!-- 34&#45;&gt;23 -->
<g id="edge28" class="edge">
<title>34&#45;&gt;23</title>
<path fill="none" stroke="grey" stroke-width="2" d="M475.09,-523.82C461.37,-514.16 444.05,-501.97 429.17,-491.5"/>
<polygon fill="grey" stroke="grey" stroke-width="2" points="430.93,-488.45 420.73,-485.56 426.9,-494.18 430.93,-488.45"/>
</g>
<!-- 35 -->
<g id="node36" class="node">
<title>35</title>
<path fill="none" stroke="#59d856" stroke-width="2" d="M523,-634.5C523,-634.5 482,-634.5 482,-634.5 476,-634.5 470,-628.5 470,-622.5 470,-622.5 470,-610.5 470,-610.5 470,-604.5 476,-598.5 482,-598.5 482,-598.5 523,-598.5 523,-598.5 529,-598.5 535,-604.5 535,-610.5 535,-610.5 535,-622.5 535,-622.5 535,-628.5 529,-634.5 523,-634.5"/>
<text text-anchor="middle" x="502.5" y="-614" font-family="sans" font-size="10.00">map_read</text>
</g>
<!-- 35&#45;&gt;34 -->
<g id="edge39" class="edge">
<title>35&#45;&gt;34</title>
<path fill="none" stroke="grey" stroke-width="2" d="M501.79,-598.32C501.44,-589.92 501.02,-579.62 500.62,-570.19"/>
<polygon fill="grey" stroke="grey" stroke-width="2" points="504.12,-569.9 500.21,-560.06 497.12,-570.19 504.12,-569.9"/>
</g>
<!-- 36 -->
<g id="node37" class="node">
<title>36</title>
<path fill="none" stroke="#56d8c1" stroke-width="2" d="M534,-709C534,-709 477,-709 477,-709 471,-709 465,-703 465,-697 465,-697 465,-685 465,-685 465,-679 471,-673 477,-673 477,-673 534,-673 534,-673 540,-673 546,-679 546,-685 546,-685 546,-697 546,-697 546,-703 540,-709 534,-709"/>
<text text-anchor="middle" x="505.5" y="-688.5" font-family="sans" font-size="10.00">rename_read</text>
</g>
<!-- 36&#45;&gt;35 -->
<g id="edge40" class="edge">
<title>36&#45;&gt;35</title>
<path fill="none" stroke="grey" stroke-width="2" d="M504.79,-672.82C504.44,-664.42 504.02,-654.12 503.62,-644.69"/>
<polygon fill="grey" stroke="grey" stroke-width="2" points="507.12,-644.4 503.21,-634.56 500.12,-644.69 507.12,-644.4"/>
</g>
<!-- 37 -->
<g id="node38" class="node">
<title>37</title>
<path fill="none" stroke="#d88d56" stroke-width="2" d="M559.5,-786C559.5,-786 481.5,-786 481.5,-786 475.5,-786 469.5,-780 469.5,-774 469.5,-774 469.5,-757 469.5,-757 469.5,-751 475.5,-745 481.5,-745 481.5,-745 559.5,-745 559.5,-745 565.5,-745 571.5,-751 571.5,-757 571.5,-757 571.5,-774 571.5,-774 571.5,-780 565.5,-786 559.5,-786"/>
<text text-anchor="middle" x="520.5" y="-774" font-family="sans" font-size="10.00">consensus</text>
<text text-anchor="middle" x="520.5" y="-763" font-family="sans" font-size="10.00">chr: NC_037640.1</text>
<text text-anchor="middle" x="520.5" y="-752" font-family="sans" font-size="10.00">indiv: BB42</text>
</g>
<!-- 37&#45;&gt;36 -->
<g id="edge41" class="edge">
<title>37&#45;&gt;36</title>
<path fill="none" stroke="grey" stroke-width="2" d="M516.4,-744.69C514.77,-736.82 512.87,-727.64 511.12,-719.17"/>
<polygon fill="grey" stroke="grey" stroke-width="2" points="514.54,-718.4 509.08,-709.32 507.68,-719.82 514.54,-718.4"/>
</g>
<!-- 38 -->
<g id="node39" class="node">
<title>38</title>
<path fill="none" stroke="#56d8d8" stroke-width="2" d="M580,-863C580,-863 481,-863 481,-863 475,-863 469,-857 469,-851 469,-851 469,-834 469,-834 469,-828 475,-822 481,-822 481,-822 580,-822 580,-822 586,-822 592,-828 592,-834 592,-834 592,-851 592,-851 592,-857 586,-863 580,-863"/>
<text text-anchor="middle" x="530.5" y="-851" font-family="sans" font-size="10.00">index_vcf</text>
<text text-anchor="middle" x="530.5" y="-840" font-family="sans" font-size="10.00">file: BB42</text>
<text text-anchor="middle" x="530.5" y="-829" font-family="sans" font-size="10.00">path: out/indivs/drone</text>
</g>
<!-- 38&#45;&gt;37 -->
<g id="edge42" class="edge">
<title>38&#45;&gt;37</title>
<path fill="none" stroke="grey" stroke-width="2" d="M527.87,-821.79C526.83,-813.96 525.6,-804.77 524.45,-796.16"/>
<polygon fill="grey" stroke="grey" stroke-width="2" points="527.9,-795.52 523.11,-786.07 520.96,-796.45 527.9,-795.52"/>
</g>
<!-- 39&#45;&gt;38 -->
<g id="edge43" class="edge">
<title>39&#45;&gt;38</title>
<path fill="none" stroke="grey" stroke-width="2" d="M511.17,-901.48C514,-893.01 517.49,-882.53 520.72,-872.83"/>
<polygon fill="grey" stroke="grey" stroke-width="2" points="524.12,-873.69 523.97,-863.1 517.48,-871.48 524.12,-873.69"/>
</g>
<!-- 40&#45;&gt;4 -->
<g id="edge9" class="edge">
<title>40&#45;&gt;4</title>
<path fill="none" stroke="grey" stroke-width="2" d="M398.5,-369.69C398.5,-361.91 398.5,-352.84 398.5,-344.45"/>
<polygon fill="grey" stroke="grey" stroke-width="2" points="402,-344.32 398.5,-334.32 395,-344.32 402,-344.32"/>
</g>
</g>
</svg>
